<?xml version="1.0" encoding="UTF-8"?>
<svg id="Layer_1" data-name="Layer 1" xmlns="http://www.w3.org/2000/svg" viewBox="0 0 317.96 306.24">
  <path d="M135.52,1.36c29.65-5.79,79.84,7.78,105.17,23.82,48.6,30.77,79.76,75.67,77.11,134.32-1.61,35.58-19.02,75.4-43.78,100.96-13.7,14.14-38.11,31.47-56.84,37.93-1.33.46-10.81,3.14-11.48,3.11s-.75-.85-.8-.84c-.19.04-.43.98-1.16,1.33-4.17,2.01-18.81,3.52-23.91,3.89-48.6,3.49-83.42-18.63-113.42-55.56-43.25-53.23-34.92-126.57,15.44-172,48.9-44.11,128.18-30.74,167.59,19.25,37.91,48.08,13.48,117.14-37.99,143.54-37.93,19.45-86.19,4.78-104.85-34.25-.54-1.13.31-2.6-.49-3.66l-1.69-.32v-2.7s-1.35,0-1.35,0l.66-4.03-3.02.32v-4.03s-1.32,0-1.32,0c-1.23-2.56.08-3.4.3-5.73-1.59,1.07-2.17,2.37-4.2,1.18,2.04-1.07,1.47-2.6,2-3.87.49-1.19,2.54-3.78.87-4.65l-3.72-.05c-.31-1.23,3.93-2.72,4.37-5.39l-2.69-1.68c-.35-1.57,2.37-1.38,3.01-2.28.22-.31-.4-1.09-.26-1.75.34-1.66,1.79-1.63-.17-3.88.69-1.58,4.55-2.1,5.21-2.87.87-1.02.69-2.77,1.33-3.69,1.21-1.72,3.87-4.02,5.32-6.06,1.33-1.87,2.43-5.3,3.44-6.75.62-.9,2.13-1.07,1.94-2.83-1.15-1.72-1.01-3.7-1.63-5.55-.25-.74-1.16-1.44-1.52-2.36-.09-.23-.9-3.68-.86-3.87.03-.18,1.46-2.97,1.66-3.21,1.01-1.26,2.48-1.67,3.57-2.98,2.42-2.93,3.79-8.67,6.06-11.13,1.55-1.68,4.05-2.74,5.91-4.71,2.85-3.03,4.91-7.51,8.22-10.26,1.9-.03-.11,9.01-.18,10.26-.47,7.81.96,12.13,8.94,15.21.91-.21,3.3-4.96,3.86-6.12,2.73-5.69,2.45-7.91,6.69-13.09,1.26-1.53,1.35-4.15,2.91-5.58.62.43.74.83.88,1.51.71,3.47,1.24,15.78.98,19.52-.1,1.51-1.53,3.03-.03,4.35,1.41,1.25,10.57,3.59,13.16,4.75,1.67.75,9.1,5.32,10.13,6.36.91.92.52,1.92.95,2.71,3.2,5.85,9.77,5.3,15.17,7.76,3,1.36,5.26,3.58,8.34,4.55,3.99,1.26,5.42.38,9.7,2.83.13.08,1.15-.94,2.35,1.36.98,1.9-1.5,7.07-3.56,6.05l.3,1.07c-2.29,2.36-4.73,5.07-8.04,5.9-1.17.3-3.63-.29-3.79-.19-.82.51-2.3,3.15-3.61,4.31-2.03,1.8-4.77,2.6-6.9,4.21l-.41-1.39c1.59-.76,2.88-2.31,2.93-4.15-2.35-1.14-3.35.73-5.03-1.06l-4.56,3.57c1.18,1.29,2.65,2.33,3.55,3.87,1.08,1.84.11,3.87,1.16,5.55l.65-1.29,1.53.45c-.1-2.15,2.58-2.68,2.86-4.87,1.66,1.79,1.28,4.44.39,6.56-.32.77-1.15,1.35-1.43,2.03-.27.64.26,1.19.11,1.75-.37,1.31-1.78,2.33-2.92,2.99-.12.07-2.2.98-2.33,1.02-11.47,3.17-27.41-10.76-35.05-7.82-.4,2.14-1.84,3.71-2.55,5.38-.22.53.32,1.01-.05,1.73-.57,1.12-1.9,1.55-2.13,2.3-.2.65.39,1.39.34,1.87-.06.64-.68,1.21-.67,1.68.01.77,1.45,2.05.99,2.89l-3.49,1.49c2.96,4.49,6.91,7.47,11.61,9.9,12.4,6.43,27.33,5.27,39.65-.53,27.53-12.97,45.34-52.05,30.33-80.87-33.84-64.99-128.16-52.4-152.47,14.78-15.99,44.2-1.27,83.43,37.06,110.18,29.75,20.77,56.88,27.02,92.22,15.73,28.93-9.24,43.38-22.9,61.32-46.8,2.56-3.41,6.1-10.77,8.3-15.46,15.59-33.26,15.69-70.57-.12-103.83l.97-.32c-2.14-.99-1.97-3.45-2.86-5.22-5.23-10.36-12.22-21.44-20.87-29.28-23.73-21.49-80.62-43.68-112.75-38.95-51.17,7.53-106.6,51.19-124.52,99.81-10.01,27.17-10.28,56.62,4.23,82.29-.03.96-.64.58-1.17.17-4.17-3.23-8.09-9.5-10.58-14.14C-1.47,176.29-2.35,145.34,3.67,122.08c6.47-24.98,18.97-50.32,38.8-67.69l-.33-.99c.55-.32,1.22-.52,1.68-.97C69.34,27.76,100.4,8.22,135.52,1.36ZM45,63.36c-.39-.8-1.76-.51-2.11-.92-.52-.61.79-3.03-1.08-2.61v4.39s1.34.66,1.34.66l1.85-1.53ZM58.13,44.86l-2.02,1.34c.49.68,2.87,2.26,3.53,1.85,1.07-.66-.2-2.76-1.35-1.68l-.17-1.51ZM38.27,70.77l-3.19-2.86c-1.69,3.07.45,4.1,3.19,2.86ZM48.03,55.62c-2.54,1.6.21,4.48,2.19,3.18,1.21-.79-1.9-2.51-2.19-3.18ZM56.1,47.55c-3.08,2.53-2.11,8,2.35,5.04l-2.4-1.83.04-3.22ZM64.86,39.47c-3.41,2.58.31,4.84,3.2,4.2-.23-2-2.86-2.16-3.2-4.2ZM33.56,71.44c-1.17,1.58-1.56,3.25-.2,4.83,2.07,2.4,4.94-.12,4.07-.95-1.79.15-3.38-1.22-2.27-2.87l-1.6-1.01ZM63.84,43.84c-1.62-2.31-2.96.56-2.89,2.19.07,1.82,2.04,3.5,3.73,2.36.54-.78-3.37-2.84-.84-4.55ZM27.51,78.17c-3.14,2.55,4.01,5.1,4.37,3.03.3-1.76-3.83-1.3-4.37-3.03ZM40.97,65.38c-5.2,2.93.15,9.34,2.19,3.53l-2.25-.34.06-3.19ZM74.28,32.07l-.82,1.2c1.44,1.92,2.78,2.24,4.52.48-.98-1.46-2.31-.53-3.52-.17l-.17-1.51ZM48.36,59.99c-4.23.35-2.48,4.25,0,6.06l2.02-2.02c-1.98-1.14-4.01-1.59-2.02-4.04ZM53.75,53.27c-2.63,1.97-2.16,4.42.34,6.25l2.69-1.21c-1.09-.95-2.08-.96-2.45-2.53-.22-.93.93-1.7-.57-2.51ZM73.94,35.77c-1.76-2.76-4.86,2.36-3.41,3.76.39.38,3.46,1.09,3.91.45l-1.73-2.35,1.23-1.86ZM22.8,86.34c-.24.01-2.18,1.37-1.19,2.01,2.64,1.71,6.18,0,3.4-1.27-.14-.07-2.1-.75-2.22-.74ZM28.85,82.87l-2.18-.49c-.68,2.9-.72,5.87,2.69,7.1l1.85-1.56-3.07-1.84.71-3.22ZM62.16,49.56c-.01-.49-1.41-1.32-2.18-.52-2.28,2.36.92,7.15,3.03,5.73,1.55-1.05-1.39-1.99-1.71-3-.35-1.13.86-2.09.86-2.21ZM82.35,26.69c-2.19,0,2.1,5.52,4.36,1.68l-.82-1.2-.67-.03-2.2,1.56c-1.31-.31.71-2.01-.67-2.01ZM72.59,45.2c-1.06-.56-1.48-6.03-3.2-4.88-.62.41-.91,3.97-.2,4.74.34.95,3.3.88,3.41.14ZM81,29.38c-4.09,2.57-2.84,6.62,2.2,5.14l.32-1.25-2.63-1.38.11-2.51ZM45.68,64.71l-1.72,3.9c.69,1.82,2.6,1.72,4.24,1.64l.33-1.33c-1.13.13-2.02-.36-2.62-1.35l.54-1.62-.78-1.25ZM51.73,58.65c-4.2,2.59,1.31,7.06,2.85,5.2.67-.81-1.47-1.53-1.89-2.32s.31-2.23-.97-2.88ZM33.56,77.5c-3.05,3.78,1.11,8.14,4.37,3.7l-3.23-.49-1.15-3.21ZM42.98,76.15c-1.84-1.38-4.04-.8-2.85-3.87l-1.03-.33c-2.07,3.27.61,6.87,3.88,4.2ZM22.12,89.61c-2.67,3.01.8,7.59,4.04,4.71-1.11-1.12-2.5-.7-3.55-2.17-.87-1.22.8-1.71-.49-2.54ZM67.55,44.88c-4.41,1.71.41,8.46,3.36,4.69l-2.76-1.49c-.64-1.11,1.12-2.37-.6-3.2ZM21.11,95.33l-2.69-1.34c-1.56,2.95,1.24,4.1,2.69,1.34ZM58.46,53.94c-2.07-.04-1.7,8,3.55,5.13l.31-1.26-1.71.35c-2.22-1.27-.97-4.19-2.16-4.21ZM78.64,35.24c-1.21-.34-3.06,1.19-3.23,2.72-.4,3.62,4.66,5.5,5.09,1.69-3.04-.16-3.67-2.19-.84-3.54-.33-.29-.56-.74-1.02-.87ZM90.09,22.99c-1,1.28-3.22,1.91-2.91,3.87.36,2.33,4.48,2.67,5.26.5l-2.44-1.15.09-3.22ZM31.88,82.55c-3.82,4.24,2.66,7.47,5.38,3.36-1.01-1.17-2.33.31-3.53-.3-2.15-1.07-.37-1.92-1.85-3.07ZM46.37,74.55c-.53-.17-1.01-.34-1.43-.72l.24-2.56c-1.86-1.45-2.59,2.54-1.9,3.73,1.61,2.81,5.92.05,3.74-.75-.07-.03-.45.36-.64.3ZM65.04,50.08c-.15.13-.7,1.92-.73,2.35-.25,3.12,2.32,3.21,4.76,3.02l.33-1.33c-1.3-.11-2.11-.5-2.73-1.68-.16-.3-.35-3.47-1.63-2.37ZM18.09,97.69c-1.22.96-1.99,2.02-1.34,3.56,1.05,2.46,5.45,1.26,4.87-1.37-.89.69-2.57.86-3.34-.05-.4-.48,1.09-1.56-.19-2.13ZM29.19,92.48c-.43,0-1.12-.36-1.38-.71-.73-.96.14-2.68-1.49-2.32-2.07,3.21,1.74,6.58,4.75,4.25.44-.34,1.02-.45.64-1.23-.77-1.59-1.59.01-2.52,0ZM38.61,77.16c-2.43,2.08,1.59,6.38,3.7,3.7-.51-.84-1.6-.23-2.19-.83-.52-.53-.29-2.35-1.51-2.87ZM52.74,65.04c-3.26-.26-4.61,4.14-1.34,5.38.95-1.87-.59-3.81,1.34-5.38ZM57.12,59.33c-3.75,3.17.2,7.57,3.7,4.37l-2.88-1.49c-.8-1.08.8-2.04-.82-2.89ZM76.97,45.44c-1.5-.89-1.78-1.88-1.17-3.45-.15-1.3-3.64,1.11-2.57,3.05,1.21,2.19,5.96,2.5,5.43-.52l-1.68.91ZM89.08,29.8c-1.82.12-2.35-.1-3.73,1.77-2.02,2.75.71,6.03,3.39,3.53-3.8-2.41-.78-4.08,2.02-5.39-.49-.38-1.11.05-1.68.09ZM97.83,19.29c-3.21,2.6-.71,6.82,2.86,5.2,1.52-.69-1.34-1.26-1.69-1.48-2.94-1.84.25-1.92-1.17-3.72ZM26.83,99.03c-.77-.96-2.28-.21-3.19-.79-.84-.54-.26-2.51-2.02-2.06-.43,3.43,2.69,5.67,5.21,2.85ZM96.83,29.71c-.6-.55-1.35-1.36-1.47-2.18-.21-1.37,2.32-3.15-.04-3.38l-2.39,1.7c.64.69.36,2.95.44,3.08,1.74,2.77,5.97,3.33,4.13-.56l-.67,1.34ZM63.85,55.29c-1.59,2.97.35,5.56,3.53,3.86l-3.53-3.86ZM76.63,50.58c-2.91-1.05-2.07-1.1-2.85-3.2-.95-2.53-2.85,2.15-1.69,3.36l3.89,1.11.66-1.26ZM83.7,35.44c-4.38,2.91-1.42,8.75,3.02,5.72l-2.42-1.18.63-3.19-1.24-1.35ZM102.2,18.9l-1.01-.96-1,1.69c1.35,1.8,3.23.3,4.37-1.01-.78-.88-1.97-.74-2.35.29ZM14.05,105.76c-.84.67-.95.81-.71,1.84.71,2.99,3.76,3.21,5.42.84l-1.01-1.01c-.4,1-1.23,1.55-2.2.89l-1.5-2.57ZM11.02,112.09l-1.35-1.27c-.25.85-.23,2.2.68,2.68v-1.34c.82.87,1.96,1.11,3.09.74,2.36-5.43-1.65-.74-2.42-.82ZM55.78,64.71c-.66.62-1.37,1.32-1.73,2.16-.72,1.73,1.61,2.29,1.72,1.2.02-.2-1.07-.55-.34-1,.64.76.73.81,1.34,0l-1-2.36ZM20.44,106.1l-2.85-2.52c-.99,4.23,6.21,6.12,4.2,1.18l-1.35,1.35ZM33.34,90.61c-.03-.13.95-3.09-.95-1.83-1.33.88.76,5.25,2.02,3.36.6-.9-1.04-1.44-1.06-1.53ZM38.95,82.21c-.99,1.14-1.33,3.11,0,4.03h1.34c.53-.8-.79-4.01-1.35-4.03ZM70.91,50.92c-1.72,1.39-.61,2.99.33,4.37l1.23-1.35-1.57-3.02ZM92.45,29.38c-1.08.9-3.37,3.38-2.87,4.88.67,2.03,4.22,2.87,5.56,1.18.03-.56-2.91-.33-3.24-2.19l1.45-2.18-.9-1.68ZM27.51,95c-1.3,2.24.54,4.13,2.71,4.69l.99-1.66c-1.8-.82-2.73-1.15-3.7-3.02ZM81,41.53c-1.44,1.1-1.66,3.96-.18,5.05,1.16.86,3.11.66,2.65-1.2l-1.67-1.35.89-1.53-1.69-.97ZM110.95,15.59c.04-1.75-7.16,1.57-5.22,4.24.99,1.37,2.58,1.04,4.05.93l.32-1.29c-.69.81-2.98-.52-2.73-1.32.66-2.15,3.56-2.05,3.57-2.55ZM24.8,105.04c-.59-.11-.82-5.27-2.17-3.81-.81.88.51,5.09,2.7,4.71l1.16-1.19-1.69.29ZM105.91,21.31c-2.34-1.8-4.94,1.28-3.73,3.53,1.4,2.61,4.93,3.24,3.9,1.04-.33-.7-2.29-1.11-2.06-2.38l1.89-2.19ZM11.36,113.84c-1.79,1.72,0,2.95.67,4.71l3.37-2.69-2.88.22-1.16-2.24ZM89.76,36.11c-2.64,1.13-3.24,4.61-.51,6.08,1.31.71,3.76-.06,3.36-1.87l-2.35-1-.5-3.22ZM15.73,110.81c-2.87,2.82.34,4.94,3.44,4.47l.6-1.11c-1.27-.51-1.73-1.46-2.7,0l-1.34-3.36ZM79.67,46.88c-.93.29-3.18,4.05-1.68,4.37l2.47-3.13-.79-1.24ZM102.21,26.35c-1.6-1.51-2.69.65-3.01,2.19-.91,4.37,4.3,3.79,4.35,2.52-1.47-.79-2.38-.44-3.03-2.36,1.97-.52.28-1.36,1.68-2.35ZM11.03,118.21l-3.37,2.01,1,1.69c.56.1,4.1-2.68,2.36-3.7ZM20.11,108.46c-1.07.03-.94,4.12-.18,4.23l1.86-.53-1.68-3.7ZM98.51,31.4c-3.66,1.66-3.47,4.93.34,6.24l1.67-1.53c-2.64-1.23-3.74-.65-1.86-3.54.41-.64.84-.35-.15-1.17ZM115.66,17.61c-4.89-3.49-6.64,6.52-.84,4.88.3-1.22-1.03-1.1-1.35-1.99-.69-1.95,2.2-2.63,2.19-2.89ZM119.03,10.88c-3.03,2.08-5.52,7.27.16,5.89l-1.05-2.7,2.23-1.85-1.34-1.35ZM121.38,9.2l-.41,2.19c4.95,4.14,4.51-.93.41-2.19ZM7.32,128.64l-1.68-3.03c-.78,1.24-1.32,5,1.18,4.58.91-.15,2.51-1.96,1.85-2.9l-1.35,1.34ZM9.68,122.25l-1.2.82.71,3.38c.53.47,4.31-1.45,3.19-2.85l-1.86.83-.83-2.18ZM109.95,21.31c-5.26,3.78-2.99,8.7,3.2,6.89-.27-1.5-2.66-.79-3.26-1.68-.75-1.11.32-3.21,1.4-3.87l-1.34-1.34ZM13.38,118.55c-1.47.97-1.84,3.49-.2,4.42,1.64.76,1.92-.84,3.22-1.39l-2.36.33-.67-3.36ZM95.82,36.79l-1.9,2.2c1.73,1.33-.9,1.9.55,3.17.44-2.04,2.6-3.38,1.35-5.38ZM107.93,28.71c-3.84-1.63-4.89,3.94-1.67,5.72,1.85-2.26-1.35-3.82,1.67-5.72ZM119.04,17.61c-1.27,1.06-2.98,2-3.17,3.87-.24,2.32,2.43,4.64,4.18,2.53-.7-.67-1.9-1.85-1.87-2.86.04-1.44,2.23-1.71.87-3.53ZM125.42,14.58c-5.6-2.59-7.48,6.48-1.52,5.54.35-1.24-1.54-2.07-1.39-3.02.21-1.37,2.91-2.23,2.91-2.52ZM131.48,9.2c.05-1.75-7.26,1.86-5.8,4.19.27.43,2.09,1.18,2.61,1.02,1.14-.37-.75-1.32-.26-2.35l3.45-2.86ZM6.99,131l-1.25,1.34,1.08,1.56c1.13.76,3.65-.84,2.87-2.22l-1.53.88-1.16-1.56ZM11.03,126.96c-2.05,1.01-1.23,4.39.84,4.2.62-.06,2.02-.66,1.68-1.68l-1.68,1.01c.78-1.25-.22-1.21-.57-1.94-.29-.6.93-.94-.27-1.59ZM115,23.67c-2.2,1.77-1.47,3.38-.49,5.56.9-1.1,1.58,1.41,2.33.65,1.17-1.16-.65-2.1-1.17-3.02-.77-1.39.26-2.25-.68-3.19ZM133.17,6.17c-2.99.99-1.06,3.55,1.51,3.18l-1.51-3.18ZM5.3,135.91c-.43.13-1.41-.97-2.01.13l1.68,1.58,2.21-1.75-.53-1.18c-.43.38-.79,1.04-1.35,1.21ZM129.46,16.6c-.87-1.53-2.88-.59-3.72.49-1.67,2.13-.17,4.87,2.54,4.72.37-1.25-1.25-1.86-1.41-2.51-.21-.9,1.77-2.33,2.59-2.69ZM133.84,16.26c-1.35-.3-1.95-2.02-1.22-3.15.25-.39,3.54-2.72.71-2.41-5.62.62-4.05,8.77.5,5.56ZM5.97,138.74l-1.48.16c-.62,4.58,4.06,3.79,3.51-.16l-1.69,1.68-.34-1.68ZM9.01,134.37c-1.57,2.09-1.06,3.79,1.35,4.71l1-1.69c-1.68-.48-2.19-1.38-2.35-3.02ZM125.42,21.98c-1.23-1.8-3.65-.26-4.41,1.17-.83,1.55,1.25,5.34,3.07,3.54-2.13-2.08-.96-3.59,1.34-4.71ZM139.56,6.56l-4.12,3.48c-.67,1.33,2.2,3.58,2.93,2.36-.68-2.61-.14-3.59,2.19-4.88l-1-.95ZM142.92,5.15l-2.35.34c1.24,1.34,1.99,5.55,3.87,2.52l-2.53-1.84,1.01-1.02ZM133.84,19.63c-.55-.52-.37-1.67-1.51-1.52-3.54.45-4.03,5.98-.41,7.07l1.58-1.18c-.88-.81-1.81-1.6-1.53-2.89l1.87-1.48ZM128.12,22.66c-1.07.94-1.89,1.77-2.18,3.19-.33,1.67.94-.53,1.5.84l-2.01,1.34,1.68,1.01c.51-.91,2.89-6.41,1-6.39ZM138.88,15.93c-1.14-3.03-3.98-.99-4.51,1.51-.57,2.7,1.29,3.53,3.66,3.36.33-1.39-1.03-1.03-1.56-1.98-.96-1.71.92-2.68,2.4-2.89ZM142.93,9.88c-3.4,1.15-4.99,3.12-2.85,6.45l2.18-.4c-2.94-2.63,2.45-3.8.68-6.06ZM149.65,6.5c-3.28-.89-8.12,5.79-2.53,5.89-.91-3.03.18-4.13,2.53-5.89ZM150.66,4.16c-1.38,1.54.56,3.35,1.69,4.37,1.94-1.62.17-3.62-1.69-4.37ZM139.22,23.67l-1.19-1.53c-2.64.19-3.9,1.76-4.18,4.22,2.36.96,2.61-2.69,5.37-2.69ZM141.88,22.33c-2.22-1.73-.39-2.22-.14-4.21-3.12-1.24-3.51,4.14-1.17,5.55l1.31-1.34ZM146.62,13.67c-4.19,1.09-5.83,5.45-.66,6.62l.5-.83-1.76-1.85c.45-1.61,1.56-2.27,2.93-3.03l-1.01-.91ZM152.03,9.6c-4.36.64-5.67,3.84-1.87,6.52l1.02-1.04c-2.12-1.77-.49-3.46,1.83-3.86l-.99-1.62ZM157.74,5.9c-1.54.97-3.51,1.11-4.21,3.14-.51,1.49.9,3.11,2.36,3.37,1.29.22.33-2.49.81-3.37s1.4-1.46,2.05-2.19l-1.01-.95ZM78.32,87.93l-.83-.5c.12,1.35-1.52,2-1.32,3.36.45,3.09,4.08,3.06,5.52.51-1.84-.22-3.19-.01-4.69-1.33l1.33-2.04ZM142.25,25.35l4.2-3.87c-1.24-1.65-5.56,1.74-4.2,3.87ZM160.76,5.58l-1.34.58c.96,1.42,1.54,2.73,3.52,2.52l-.96-2.68-.86.33-.37-.75ZM85.39,81.55c-4.29,2.4-1.6,6.76,2.85,5.88.54-2.68-2.27-2.23-2.92-3.33-.59-.98.63-1.83.07-2.55ZM68.25,103.95c-1.01.2-2.09-2.12-3.21-2.05-1.3,4.51,4.43,5.77,4.37,1.35-.42-.29-.71.61-1.15.7ZM72.93,95.34c-1.29-.72-2.26.67-1.84,1.86,1.03,2.98,5.05,2.07,4.37,0-.23-.71-1.53.36-2.72-.68l.2-1.17ZM150.26,22.66c.01-.18-.83-.78-.78-1.51.02-.25,3.02-4.32.35-3.72s-3.02,4.48-1.69,6.41c.56.37,2.1-.65,2.13-1.17ZM156.06,13.58c-1.56.91-2.91.28-3.92,2.16s.17,5.59,2.56,3.89l-.86-2.36c.37-1.39,3.35-1.61,2.22-3.7ZM92.12,76.84c-3.75,2.91.29,9.28,3.7,5.05-.7-.84-1.74-.2-2.52-1.14-.88-1.06.37-3.04-1.18-3.9ZM160.76,15.59c-3.46-1.85,3.06-4.38,1.18-5.55-4.16-.07-6.58,4.21-2.76,6.73l1.58-1.18ZM6.66,166.12c-.57-.08-1.08-.85-1.85-.62-.24,2.3,3.15,2.97,3.86.84-.61-1.02-1.36-.12-2.01-.21ZM77.65,93.99c-2.31-.79-2.25,2.06-1.15,3.52,1.27.98,3.03.89,4.34.06.08-2.38-2.45-.76-3.38-1.7l.18-1.88ZM81.95,88.44c-1.19,2.39,3.41,5.4,4.96,3.69,1.04-1.15-4.09-2.4-3.03-4.7-.89-.17-1.52.19-1.93,1ZM65.88,106.44c-2.7,1.78-4.61,4.75-.5,6.27,1.49,0,2.6-.77,3.53-1.9-.7-1.4-1.81.37-2.36.28l-1.59-2.3c.2-.9,2.45-1.4.92-2.35ZM60.83,113.51l-1.89.17c-2.78,3.99.72,8.06,4.25,4.21-1.24-1.3-2.35.02-3.44-2.19l1.08-2.19ZM72.61,99.72c-4.38,2.8-1.33,7.53,2.35,3.7l-2.51-1.17.16-2.53ZM90.1,82.22c-3.58,2.4.59,8.14,3.9,5.54.56-.44.2-1.3-.03-1.68-.1-.17-1.9,1.2-3.3-1.26-.32-.56.98-1.87-.57-2.6ZM98.85,73.47c-1.85.19-.15,8.4,3.53,7.23.32-1.7-1.21-2.03-1.83-3.33-.47-.99-.28-4.04-1.7-3.9ZM167.83,5.84c-3.53,2.07-7.11,4.48-2.35,7.74l1-1.01c-1.96-1.37.53-3.74,1.88-4.86l-.53-1.87ZM55.12,118l-1.35,1.23c1.29,1.37,3.23,2.26,4.37.34l-3.02-1.57ZM104.57,69.77c-3.12,2.64-1.8,5.63,1.35,7.39,2.14-1.54-.31-1.21-1.01-2.82-.46-1.05-.11-2.39.48-3.33l-.82-1.24ZM155.23,20.64c0,1.48,1.64,3.53,3.34,3.19-1.49-3.08-.93-3.13.34-6.04-2.08-.54-3.67.75-3.68,2.85ZM71.25,105.77c-1.16-1.49-2.37.68-2.55,1.85-.4,2.55,2.64,3.75,4.75,3.36l.32-1.34c-.41-.85-1.02.18-1.39-.05-1.39-.84-2.29-2.47-1.13-3.82ZM76.98,98.71c-3.29,1.98-1.22,6.13,2.53,5.54,1.4-.59-1.9-2.33-2.22-2.99-.41-.86.78-1.83-.31-2.55ZM82.7,92.32c-3.77,3.58,1.15,8.34,4.37,4.37-1.35-1.64-1.77.31-3.58-1.49-1.34-1.34.37-1.66-.79-2.88ZM106.89,68.24c-1.7,2.32.79,4.66,3.23,4.72l-1.41-3.36,1.74-2.68c-1.18-.14-2.84.34-3.56,1.33ZM169.52,5.5l-.5.9c.76,1.54,1.1,2.8,2.86,3.47l-.51-3.87-1.31.34-.53-.84ZM55.32,123.26c-.03-.41.49-1.17.29-1.51l-1.5-.17c.81,1.46-1.54,2.68.29,4.86,1.09,1.3,2.89.15,4.24.7l.32-1.41c-.99-1.19-3.48-.09-3.65-2.48ZM111.96,64.5l-1.33.56c.73,1.89,3.52,4.75,3.83,1.25l-2.49-1.8ZM97.85,78.52c-1.58,1.41-1.45,3.6-.38,5.25,1.6,2.46,5.04,1.51,4.25.63-3.22-1.36-2.9-3.18-3.87-5.88ZM68.9,116.2c-1.76-1.14-4.41.49-4.21-2.86-1.55-.39-1.9,1.61-1.52,2.68,1.14,3.18,3.88,1.97,5.73.17ZM89.1,87.94c-4.63,3.4,4.12,7.92,4.71,4.71-1.09-.4-3.12-1.06-3.87-1.9-.78-.88.15-2.07-.84-2.81ZM160.76,17.1c-1.03,1.43-1.24,3.11.48,4.09,3.44,1.94,1.12-2.32,1.36-3.07.62-1.96,2.58-1.47,2.96-2.01l.08-1.69c-1.91.28-3.74,1.09-4.88,2.67ZM52.75,127.42c-.5-.09-.77-.89-1.17-.62v2.33c1.42.19,2.61.15,3.53-1.15-.64-1.12-1.77-.45-2.36-.56ZM81.7,98.03l-2.16,2.09c.28,2.85,2.68,5.61,5.35,3.47l-.67-1.02-1.05.31-.49-1.04-.82.4.65-2.96-.82-1.24ZM98.85,90.11c.59-.03,1.9-.78,1.51-1.66-.46-.69-1.94.15-3.05-.97-.88-.89-.72-4.65-2-3.73-1.81,1.3.48,6.52,3.54,6.37ZM76.64,105.1c-2.29-1.87-2.99,2.24-2.34,3.88.85,2.14,3.81,1.74,5.04.16l-3.52-2.13.82-1.92ZM60.16,120.24c-3.75,3.02.56,7.98,4.21,5.22,1.5-1.14-1.86-1.2-2.37-1.51-1.99-1.19-.81-2.21-1.84-3.71ZM87.29,94.67c.23,2.53,3.28,5.69,5,2.87.73-1.21-2.13-1.14-2.89-2.06-.52-.63-.51-2.26-1.66-2.82-.1-.01-.48,1.77-.46,2.01ZM109.96,81.21c-.97-1.05-2.73-.1-3.83-.8-.82-.51-1.38-4.62-2.72-3.4-2.19,2,3.43,9.43,6.55,4.2ZM170.86,10.89c-2.96.59-6.51,4.66-3.21,6.89,1.42.96.85-2.88,1.48-3.72.88-1.18,3.56-.59,1.73-3.17ZM55.11,133.36c-.65-1.29-2.13-.55-2.89-.96-.9-.49-.75-1.79-1.64-1.9-1.17,2.74,2.67,5.6,4.54,2.86ZM119.72,62.03l-1.12,1.53,2.81,2.17.37-1.47-2.06-2.23ZM68.87,113c-1.6,2.96,3.29,5.26,4.57,3.38.93-1.37-2.06-1.24-2.6-2.34-.26-.53,1.02-4.27-1.47-1.73-.2.21-.36.44-.5.69ZM118.03,64.39c-1.53.85-3.04,2.63-3.14,4.45s2.48,3.64,2.64,2.45c-.98-2.27-1.86-4.16.89-5.51l-.4-1.38ZM65.19,119.23c-.24-1.41-2.37-.37-2.12,2.19.27,2.8,3.21,3.02,5.34,2.01.15-2.56-1.33-1.19-2.02-1.47-2.84-1.16-1.11-2.26-1.19-2.73ZM113.66,69.44c-3.95.61-2.1,7.57.34,7.01,2.26-.52-.68-2.3-.85-3.42-.1-.66,2.15-2.41.51-3.6ZM93.71,89.45c-1.05,1.96,4.28,6.44,5.64,4.38.82-1.24-1.95-1.45-2.72-2.32-.49-.56-1.49-4.72-2.92-2.06ZM177.59,7.53c-3.56.78-7.8,3.92-3.36,6.72.71-.84,0-2.1.44-2.86,1.05-1.78,3.55-1.88,2.93-3.87ZM109.96,73.81c-3.59,2.78-2.81,5.42,1.36,6.7l.99-1.66c-.8-.31-1.4.1-2.04-.81-1.15-1.64.8-2.94-.31-4.24ZM60.83,132.36c-.98-.99-2.1,0-3.23-1.14-.95-.96-.58-1.58-.29-2.73l-1.02-.33c-2.99,3.96,1.22,8.14,4.55,4.2ZM88.76,99.04c-1.48-2.61-3.76,1.45-3.51,2.61.61,2.84,5.2,4.58,6.87,1.43l-4.19-.87c-.96-1.12-.11-2.41.83-3.18ZM106.94,86.05c-2.65-.6-2.12-2.59-3.71-4.16-1.9,4.62,1.5,7.63,5.72,5.05-.78-2.02-1.21-.7-2.01-.88ZM167.16,18.79c-2.91.16-4.09,4.85-1.01,6.16,2.29-.53.42-1.87.84-3.13.26-.76,1.15-1.29,1.37-2.02.22-.69-.83-1.04-1.2-1.02ZM74.96,110.9c-2.72,2.1-1.49,5.31,1.86,5.43,1.12.04,3.05-.87,2.35-1.98-.53-.84-4.87,1.4-2.91-2.87l-1.29-.57ZM81.05,107.46c2.53-4.05-1.84-2.91-1.16.51s5.89,2.39,5.85,1.51c-1.22-2.08-3.43-.34-4.69-2.02ZM61.83,127.3l-2.16-.49c-.1,2.11-.37,3.28,1.68,4.53,1.74,1.06,4.76-.23,3.36-1.18l-3.32-1.32.44-1.54ZM69.58,116.88c-2.58,3.7-.26,6.74,3.87,4.87.15-2.34-.82-.93-1.4-1.06-2.57-.57-.83-2.45-2.46-3.81ZM49.4,137.74c-2.74.47.55,8.27,2.52,4.53-2.32-1-2.32-2.29-2.52-4.53ZM122.74,67.75c-1.11-1.39-2.5-1.07-3.56.13-2.16,2.45.6,6.32,3.74,5.75l.3-1.34-2.73-2.19,2.26-2.36ZM127.12,62.7c-1.52-2.2-3.89.63-4.19,2.52-.41,2.55,1.25,3.05,3.18,3.83l.86-1.49c-2.68-1.53-2.05-3.09.14-4.87ZM174.56,16.61l-.83-1.21c-2.02-.39-5.03,2.51-4.39,4.4.36,1.07,3.13,3.69,3.38,2.36l-.93-3.38,2.77-2.18ZM179.61,7.52l-.85,1.23,1.66,2.3,2.21-1.18c-.92-.51-1.46-1.97-2.35-1.12l-.67-1.23ZM54.1,135.72c-2.96-1.5-3.05,3.87-2.05,5.24,1.18,1.62,4.35.95,5.42-.52-1.11-1.74-1.36-.25-2.51-.13-2.31.25-2.5-3.49-.86-4.59ZM94.48,94c-.24-.05-1.34.85-1.47,1.4-.44,1.94,2.85,5.5,4.66,4.77,2.47-.99-1.9-2.62-2.38-3.3-.64-.9.64-2.57-.82-2.87ZM101.54,86.26c-.9,3.3.97,6.11,4.54,5.54.41-1.82-1.59-1.21-2.34-2.02-.57-.62-.6-2.93-2.2-3.52ZM129.14,60.09l-2.01.6c.7,1.51,1.51,2.34,3.03,3.03l1-1.69c-1.18.1-1.87-1.91-2.02-1.94ZM180.28,12.23c-4.62-2.28-7.28,4.46-3.02,7.06,2.19-1.57-.94-2.5.12-4.56.86-1.67,2.24-.85,2.9-2.51ZM85.73,104.09c-3.53,3.15,2.65,7.03,5.88,5.53.27-3.18-1.86-1.32-3.37-2.35-1.19-.82-1.58-2.18-2.51-3.18ZM119.04,73.47c-1.74-2.68-3.61,2.04-3.24,3.53.64,2.55,4.33,3.46,4.08,2.02-1.93-2-3.05-3.07-.84-5.55ZM62.18,138.41c-.74-1.19-2.33-.69-3.22-1.3-1.21-.83-1.59-3.78-3.5-2.07.62,3.62,3.56,6.38,6.72,3.37ZM85.06,114.86c-.74-1.07-2.29-.79-3.17-1.46-1.16-.88.06-3.14-2.05-2.74-2.19,2.94,2.86,7.21,5.22,4.2ZM46.4,145.01c-2.49.54.35,1.83,1.22,1.24,1-.68,1.29-1.97,2.11-2.79-1.64-1.14-2.44.18-2.52,1.86-.14.32-.65-.34-.8-.31ZM66.22,124.96c-3.8,3.61,1.16,8.01,4.37,4.37l-3.38-1-.99-3.37ZM74.63,116.54c-4.08,2.61,1.98,6.67,4.37,3.7-.67-1.19-2.44-.69-3.18-1.29s-.35-1.84-1.19-2.4ZM92.8,98.38c-3.07,2.48,2.87,7.96,5.23,6.24,1.76-1.29-2.44-2.09-3.08-2.69-1.18-1.1-.8-2.61-2.14-3.55ZM100.88,90.3c-2.44.28,1.1,7.47,3.86,6.22.25-1.71-1.74-1.76-2.65-3-.35-.48-1.01-3.24-1.21-3.22ZM114.33,77.51c-.88-.03-1.78,3.76-1.34,4.87s2.96,3.52,3.84,2.68c1.45-1.4-1.06-2.02-1.49-3s.79-4.49-1.01-4.55ZM70.26,122.94c-4.26,5.14,5.01,7.05,5.05,4.37.02-1.4-2.98-.12-3.5-.97l-1.55-3.4ZM111.64,81.55c-3.26,2.07-2.44,6.21.85,7.6,2.48-2.06-.27-1.62-.87-3.37-.51-1.5,1.44-2.93.02-4.22ZM185.99,10.02c-.18-.05-3.22.83-3.54,1.01-2.22,1.26-2.27,3.82-.15,5.24,1.63-1.11-.14-1.72,1.13-3.22.89-1.05,5.4-2.27,2.56-3.03ZM46.71,147.16c-3.2,2.62,1.62,7.23,4.03,3.36-2.08-.16-3.38-.03-4.71-2.02l.67-1.34ZM98.37,95.54c.08,3.28,1.5,5.51,5.02,5.01l-.09-1.58c-2.68-.52-2.42-1.58-2.93-3.8l-2.01.36ZM136.66,58.27c-.12.33-.65.47-.67.88-.18,3.37,4.95,4.59,3.74,1.75-.3-.71-2.2-1.52-1.73-3.41l-1.29-.32c-.85.35,0,.99-.04,1.11ZM172.88,24.35c-.77-2-4.68.31-3.82,1.45l1.47.82,2.35-2.27ZM54.78,148.51l-2.86-.85c-.43-.45-.17-4.74-1.67-3.35-.1.09-.69,2.33-.66,2.69.22,2.79,4.08,4.61,5.19,1.51ZM66.89,137.07c-.54-1.22-2.25-.98-2.84-1.53-.74-.68-.55-4.54-2.38-2.69-2.32,2.34,2.73,7.15,5.23,4.22ZM134.52,60.02c-3.81,2.88-3.94,5.38.34,7.74,2.66-2.81.03-1.9-.68-3.85s1.61-2.65.34-3.89ZM130.83,65.07c-3.75.67-3.71,6.55-.51,7.25,2.64.58-.95-2.96-.19-4.41.62-1.18,1.82-1.1.69-2.84ZM80.35,115.54c-2.02,1.44-1.38,3.68.84,4.52,1.16.44,3.11-.1,2.68-1.67l-2.69-.66-.83-2.2ZM126.45,70.11c-3.59,1.87-2.58,6.46,1.51,6.55,1.17-1.48-.65-1.56-1.21-2.34-.91-1.25-.44-2.32.7-3.21l-1-1ZM175.23,24.01c1.14-1.02,2.19-1.86,1.85-3.53-4.12-.38-4.59,4.89-1.01,6.05.57-1.37.3-1.61-.84-2.52ZM54.78,142.46c-3.35,1.28-.86,5.26,1.93,5.52,1.1-.4,3.38-2.07,2.94-3.34-.41-1.19-2.01,1.25-3.37.57-1.56-.79-1.33-2.75-1.5-2.76ZM74.97,121.59c-.8-.03-1.56,5.73,2.9,4.58.94-.24.93-.99,1.19-1.05.16-.04.73.86,1.12,0l-.16-1.18-3.22.72-1.83-3.08ZM86.74,109.82c-.25,0-1.35,1.32-1.51,1.85-.68,2.29,2.53,4.93,4.2,2.18-2.69.07-.99-4.03-2.69-4.03ZM69.93,134.55c-2.49-.01-1.62-3.35-3.87-3.38-.15,2.51-.17,5.21,3.03,5.4.98.06,3.21-.53,3.34-1.63.24-2.13-1.99-.39-2.49-.39ZM109.63,88.28c-3.75,2.15-3.36,5.76,1.17,6.22l-2.09-3.86c.21-.9,2.45-1.4.92-2.36ZM124.09,75.83c-1.42-2.48-3.54,1.06-3.54,2.35,0,1.46,1.94,3.39,3.21,4.04l1.34-2.02c-2.5-.11-3.09-3.25-1.01-4.37ZM188.36,9.02c-1.61.65-.3,3.11.68,3.88,1.82-.99.53-1.98,1.32-3.36-.06-.53-1.9-.56-1.99-.52ZM93.47,104.43c-1.68.04-.99,4.95-.34,5.04l1.68-1c-1.45-.44.13-4.08-1.35-4.04ZM183.31,18.63l-1.15-1.23c-4.66.82-5.86,4.94-1.2,6.95,1.11-.95.24-2.1-.53-2.87l.11-.64,2.77-2.2ZM58.15,141.1c1.09,2.86,2.54,3.56,5.54,3.2.43-2.94-1.12-1.54-2.35-2.16-1.03-.52-1.88-2.5-3.19-1.04ZM189.37,14.59c-2.01-3.35-6.04-.2-5.53,2.86.25,1.51,1.91,4.04,3.52,2.53-2.92-2.79-1.17-4.38,2.02-5.38ZM106.26,93.67c-1.35,1.73-.03,4.12,1.35,5.38,2.01-.01-.62-4.66-1.35-5.38ZM121.06,81.55c-1.44-2.57-3.16,1.4-3.17,2.7-.01,1.73,1.75,3.86,3.68,3.53-.11-2.66-3.26-3.16-.5-6.22ZM52.09,155.28c-2.28,2.03-3.55.02-4.72-2.06-2.78,4.29,3.28,6.86,5.72,3.02l-1-.97ZM142.6,58c-2.9,2.1-2.18,6.32.33,8.41,2.26-1.63.64-2.05.22-3.53-.51-1.78.51-2.76,1.8-3.87-.6-.9-1.24-.37-2.02-.1l-.33-.91ZM71.78,129.5c-1.39,1.47,3.07,8.53,4.03,3.03-1.96,1.06-2.86-4.26-4.03-3.03ZM149.66,59.68c-1.35-1.12-2.23-2.07-1.81-3.9l-1.22-1.14.67,1.34-1.51.17.69,1.67-.86.51c1.3,1,2.61,3.37,4.03,1.35ZM119.38,90.63l-2.78-1.5.93-3.03c-6.25.47-2.73,8.82,1.86,4.53ZM57.81,154.23c-.05-.43-2.72-.36-3.22-.64-.87-.48-2.04-3.39-3-2.55-2.03,1.79,4.07,8.26,6.21,3.19ZM63.7,138.93c.04,2.21,1.53,5.27,4.03,5.09,1.44-.1,2.61-1.21,1.02-1.74-1.88-.63-3.24-.75-3.48-3.27l-1.57-.08ZM47.72,158.27c-.99,1.2-2.03,1.66-3.38.72-.91,1.44-.31,1.99,1.03,2.88,1.4-.54,3.88-2.03,2.36-3.6ZM136.54,74.15c-2.95-1.36-2.5-2.36-1.17-4.88-.14-1.55-4.34,1.74-2.74,4.74.88,1.65,2.85,1.78,3.91.14ZM139.57,63.72c-2.83,2.17-4.99,5.57-1.18,7.95l1.85-1.22c-4.3-3.01,1.78-4.43-.68-6.73ZM192.66,15.61c.21-.51.28-.95.74-1.36,1.13-1.01,3.15-.33,2.86-2.17-4.44-1.24-8.68,1.39-4.53,5.54,1.49-.65.85-1.81.93-2.01ZM113.33,91.31c-1.52,1.36-2.27,3.01-.33,4.37.58-1.31,1.53-3.09.33-4.37ZM131.5,73.82c-4.02,2.95-1.74,6.1,2.53,6.22v-1.37c-4.05-.82-1.69-2.48-2.53-4.84ZM57.14,148.85c-2.71,3.09,3.32,7.39,5.04,3.02-1.19-.65-3.16-.26-4.21-1.13-.64-.53-.02-1.41-.84-1.89ZM72.28,141.11c-1.1-1.04-2.22-1.84-2.27-3.46l-1.87.24c-.56,1.86,1.09,2.83,2.24,4.04l1.9-.82ZM128.14,77.85c-3.26,2.27-2.97,6.76,1.52,6.56,1.4-.93-3.18-3.46-.74-5.31l-.77-1.25ZM185.28,27.38c-1.66-1.74-.37-3.82,1.9-3.88l-.32-1.35-.68-.34c-3.81-.23-4.9,3.58-2.37,6.08.8.8.82.2,1.47-.51ZM62.85,145.81c-3.15-2.15-2.3,6.11.68,5.9l3.02-2.19c-.7-1.11-1.79,0-2.52-.17-1.58-.38-2.29-2.29-1.19-3.54ZM49.74,163.69c-.68.64-1.53,1.47-2.54,1.15-1.41-.45-1.03-2.34-2.67-2.03-.78,5.18,3.64,5.07,6.55,2.18l-1.34-1.3ZM125.11,82.9c-2.78,1.05-2.93,4.45-1.02,6.39,1.02-.82.62-2.17.89-3.21.33-1.29,1.68-1.11.13-3.18ZM189.56,22c-.1-1.26,1.29-1.7,2.24-1.96l.09-1.58c-4.34-.11-5.71,3.93-2.18,6.55,1.36-.98-.09-2.29-.15-3.02ZM49.57,159.12c-.1.12.36,2.65.52,3.04,1.66,3.89,6.45.12,4.52-1.02-.76-.12-1.68.58-2.38.24s-1.91-3.11-2.67-2.25ZM197.79,10.9c-1.73,1.74,1.17,6.26,2.46,3.15l-1-1.64-.95.35-.51-1.86ZM65.21,144.14c-2.88,3.65,3.48,5.82,6.05,3.36-.99-1.72-2.44.14-3.88-.64-1.17-.63-1.47-1.75-2.17-2.72ZM147.65,63.05c-3.63,1.58-3.86,4.5-1.83,7.56l1.22-.32c1.07-1.13-.4-2.11-.31-3.03.13-1.32,2.39-2.21.92-4.21ZM198.45,16.95c-4.8-3.08-7.91,3.27-3.36,6.05l.29-4.23,3.07-1.82ZM57.13,162.14c.84,0,3.6-1.2,2.86-2.36-.48-.75-4.27,1.09-4.12-2.61l-1.59-.08c.26,1.31,1.29,5.05,2.86,5.04ZM153.37,58.72c-2.31,1.28-6.65,4.9-2.87,6.89,3.13,1.66,1.52-1.88,1.83-3.06s1.16-2.18,2.39-2.52l-1.34-1.31ZM137.55,74.49c-.73,1.34-2.47,2.95-2.12,4.54.25,1.11,2.48,3.8,3.29,3.02,1.33-1.28-1.29-2.4-1.41-3.7s2.18-2.29.24-3.87ZM143.61,69.16c-4.02,1.84-7.09,6.98-1.35,8.6l1.01-.91-2.24-2.36c.63-1.94,1.46-3.72,3.58-4.37l-1-.95ZM155.06,56.99c-.93.71-.54.54-.25,1.18.36.8,2.01,3.37,3.01,2.63l.92-1.46c-1.42-.38-1.52-1.55-1.51-2.85l-1.66,1.35-.51-.84ZM59.49,154.57c-2.59,3.12,2.31,5.99,5.21,4.19.1-2.99-1.82-.79-3.05-1.45-1.11-.6-1.29-1.96-2.17-2.74ZM135.87,81.55c-3.35-1.76-5.93,2.3-3.7,5.04,1.63-1.94.75-4.06,3.7-5.04ZM186.68,29.35c1.51-.93,3.35-.88,2.86-3.14-1.69-.15-2.82,1.01-3.86,2.18l1.01.95ZM47.04,167.69c-1.96,1.48-.5,5.87,1.94,5.51,1.11-.17,4.55-2.01,2.78-3.49l-2.89,1.08-1.83-3.1ZM72.27,143.8c-3.36-.41.08,1.67-.82,2.58l1.84,1.06,1-.95-.85-.36.36-.79-2.05-.71.51-.83ZM69.59,155.24c-.92-1.67-2.64,0-3.86-.79-.81-.52-.52-3.34-2.45-1.56.32,4.01,3.5,5.77,6.31,2.35ZM195.09,25.03c-.79-2.17-3.55-1.32-4.43.5-.5,1.02.7,4.24,2.08,4.54l1.01-1c-2.64-1.66-1.35-3.79,1.34-4.04ZM202.51,15.4c-.44.05-.98-.46-1.52-.21-2.35,1.09-2.28,4.14-.17,5.46,1.59-1.15-.17-2.4,1.33-3.83.78-.74,1.7-.42,2.37-1.21-1.2-1.77-1.21-.29-2-.2ZM54.79,167.93l-2.85-3.09c-2.15,3.86,3.18,7.52,5.82,3.53l-.48-1.17-2.5.72ZM70.6,154.01c.39-.04.77-.45,1.18-.55l.31-1.05-4.34-2.71c-.82,2.17.33,4.59,2.85,4.32ZM46.7,173.59c-.64.07-1.74,1.12-2.85.66l-.16,2.19c2.67,1.58,5.94-3.15,3.01-2.86ZM147.24,73.49l-1.1-1.21c-2.91.82-2.54,5.27-.35,6.76l1.27-.08c1.45-1.77-1.32-1.35-1.27-3.28l1.45-2.18ZM148.62,69.59c-1.44,1.97.36,5.7,1.89,4.72,1.01-.65-.68-2.32-.36-3.38.28-.92,3.31-2.21,2.37-3-.48-.41-3.42,1.01-3.9,1.66ZM61.52,164.67c-2.35,2.48-3.26-1.61-5.55-1.86.09,3.33,4.02,6.38,6.05,2.7l-.49-.85ZM155.73,70.45c1.81-1.35-.21-3.48.15-4.54s1.94-1.59,1.69-3.02c-4.19-.43-5.94,6.24-1.84,7.56ZM199.13,26.37c-2.5-1.06-1.77-3.55.85-3.83v-1.37c-4.08-.49-6.13,4.2-2.09,6.05l1.24-.84ZM162.12,58c-2.67,2.49-5.06,3.97-2.02,7.4,1.73-.98,1.14-2.66,1.55-3.87.45-1.33,2.47-2.1.47-3.53ZM143.28,78.21c-2.48,1.5-4.67,3.03-2.71,5.98l2.37-.95c-1.69-1.97-.45-2.9,1.35-4.04l-1-.99ZM67.57,161.97c-1.01-1.19-2.03.33-3.22.12-1.08-.19-1.5-2.29-3.33-1.63.59,4.6,3.88,5.24,6.55,1.51ZM167.1,59.02c.17-1.13-2.79-2.1-3.63-1.02l2.36,2.36,1.27-1.34ZM207.54,13.93c-1.49,1.69-2.78,2.88-1.01,5.04l1.56-1.17c-1.49-1.61.61-2.54-.55-3.88ZM203.51,25.36c.37-.04-.06-2.26.29-2.88.73-1.31,3.14-1.32,1.89-3-3.67.17-6.45,3.96-2.19,5.88ZM47.05,177.12c-1.08.6-1.49.83-1.2,2.18.85,3.88,4.87,3.86,6.91.85-1.41-1.25-2.77.99-4.51-.13-1.05-.67-1.04-2.91-1.21-2.9ZM51.75,173.74c-.07-.55-2.77.24-3,1.01,1.53,3.15,4.43,5.51,7.88,3.55.35-1.98-2.48-1.05-3.36-1.37-1.34-.49-2.73-1.92-1.52-3.19ZM198.12,28.73c.1-1.61-5.67.98-4.54,3.53,2.72.06,1.03-.41,2.02-1.71.64-.85,1.84-1,2.51-1.82ZM54.11,170.72c-3.04,4.41,3.9,7.94,6.73,3.36-1.07-1.98-3.04.32-4.22-.26-1.52-.76-.88-2.54-2.51-3.1ZM69.77,159.61c-.3-.77-3.31-2.38-3.88-.67,1.06,1.13,2.27,2.83,4.02,2.02-.71-.38-.09-1.24-.14-1.35ZM156.74,77.52c-.02-.24-2.22-.76-2.48-2.52l1.29-3.36c-4.84.69-4.79,5.01-.66,7.05l1.25-.07.6-1.1ZM150.34,75.84c-1.21,1.08-2.29,2.53-2.21,4.21l1.21.83,1.9-3.36-.89-1.68ZM43.01,183.85c-1.34,1.04.38.74.24,2.49-.04.58.36.52.61.38.83-.66.49-1.34,1.61-.69l1.4-3.69c-1.81-.27-2.14,1.66-3.01,2.69l-.85-1.17ZM64.88,170.16c-4.15,2.54-3.77-1.34-4.53-1.88-1.47-1.04-2.27.92-1.55,2.27,1.66,3.1,5.22,3.4,7.43.85l-1.35-1.24ZM160.1,67.42c-.6.67-1.59.9-2.21,1.51-2.54,2.54.57,7.86,1.72,6.07.66-2.19-1.87-4.74,1.49-5.89l-1-1.69ZM165.14,63.05c-5.31.3-4.55,8.35.85,7.91,1.17-1.57-.64-1.6-1.39-2.35-1.36-1.36-.6-4.22.54-5.56ZM200.63,29.07c.34-1.32,3.02-1.24,1.7-2.86-3.27-.23-4.86,3.97-1.69,5.38.55-.75-.08-2.26-.01-2.52ZM210.09,22.66c.08-.34-.72-.94-.04-1.87,1.12-1.5,3.25-1.2,3.38-1.33,1.81-1.82-4.79-1.7-6.1.37s2,5.91,2.75,2.82ZM170.19,66.08c-1.35-.24-3.06-2.23-2.41-3.53.12-.25,2.95-3.28.9-2.7-4.58,1.3-3.33,10.46,1.51,6.23ZM62.87,166.01c.86,3.56,5.43,5.46,5.54.85-3.37,1.67-3.46-2.24-5.54-.85ZM208.89,24.69c-2.08-.62-4.59.16-5.16,2.44-.3,1.19.92,3.98,2.47,2.27l-.9-1.68,3.6-3.04ZM176.25,58.68c-4.53-2.25-8.24,3.56-4.03,6.73,2.57-1.47-.59-2.74,1.13-4.86.81-.99,2.45-.15,2.9-1.87ZM44.02,187.55c-1.07.69-.33.72-.22,1.2.73,3.12,4.54,3.14,6.27.81-1.03-1.92-2.38.36-3.87-.16-.94-.33-1.51-1.2-2.19-1.85ZM56.8,186.88c-1.31-1.99-3.08.67-4.88-.31-2.17-1.17-1.3-4.51-3.69-3.23-.03,5.13,5.19,7.8,8.58,3.54ZM203.85,30.45c-1.11.11-3.84,2.06-2.85,3.13s5.43-1.74,2.85-3.13ZM215.28,17.63c-1.58.76-.81,4.61.84,3.86,1.46-.66.03-3.24-.84-3.86ZM53.44,180.81c-1.17,1.04-2.29,1.77-.8,3.04,2.23,1.9,5.59,1.33,7.68-.5-.36-3.38-3.37-.22-4.7-.67-.92-.32-1.51-1.23-2.19-1.87ZM213.94,22.42c-1.42.62-3.1.7-4.07,2.08-1.14,1.63-.31,4.66,1.87,3.4-1.3-4.47,5.05-2.41,2.2-5.48ZM59.84,176.45l-2.01,1.34c1.68,3.94,5.95,6.39,8.39,1.68l-1-1c-2.49,2.54-4.61,1.07-5.39-2.02ZM159.77,76.51c-1.69.22-4.3,4.35-2.02,4.7.46.07,2.5-3.08,2.56-3.36.02-.12-.45-.99-.54-1.35ZM165.15,77.86l-1.88-1.85c.58-1.38,1.93-2.27,3.39-2.37l-.33-1.33c-2.58-.41-7.07,1.86-5.24,4.71,1.06,1.65,2.6,2.53,4.05.83ZM63.88,173.82l-1.87,1.11c1.32,2.75,3.52,3.14,6.23,2.53l-.32-2.35c-1.89,1.49-3.23.91-4.04-1.28ZM179.96,59.68l-2.2-1.13c-1.73,1.87-1.74,4.84.86,5.75l1.34-1.25-1.24-1.15,1.25-2.22ZM210.57,29.74c-.51-3.16-7.7,2.63-3.88,4.86,1.84,1.08,1.04-1.45,1.06-1.82.16-2.17,3.01-1.82,2.82-3.04ZM171.21,67.09c-2.73.91-6,5.31-2.2,6.72,3.36,1.25.67-2.34.67-3.02,0-1.17,2.2-2.27,1.54-3.7ZM47.05,191.92c-1.65,1.59-1.02,3.57.84,4.74,2.09,1.32,7.54-.03,5.74-1.92-1.35-1.41-1.7.06-2.69.36-2.81.84-3.12-3.18-3.88-3.18ZM219.33,21.21c-3.16.32-5.03,3.19-2.36,5.5,1.06-.96.67-2.14,1.81-3.21s2.94-.89,3.07-1c1.06-.94-2.18-1.33-2.52-1.3ZM177.93,65.74c-3.31-2.75-6.86,1.95-4.89,5.19l2.2-.47-.37-2.9,3.07-1.82ZM135.31,110.83c0-.51-.31-4.37-.78-4.37l-3.7,6.39-1.01-1.01c-1.82,1.07-.05,1.72-.18,3.2-.09,1.1-1.3,2.44-1.71,3.7-1.05,3.21.65,5.51,3.24,7.23.52.03,1.06-3.67.85-4.22-.29-.75-1.44-.85-1.91-1.63-1.09-1.81,1.13-4.32,1.55-6.08,1.53-.67,1.63,2.67,2.67,1.34s.98-2.86.97-4.55ZM213.6,32.77c-2-3.17,3.43-2.46,3.2-4.88-3.93-.7-7.61,1.93-4.03,5.38l.84-.5ZM52.09,189.57l-.84,1.24c.93,2.17,3.58,4.64,6.07,3.34,1.96-1.02,2.87-3.21.83-4.58-1.44,3.27-4.13,2.45-6.06,0ZM123.44,120.75c-.41.08-1.05-.53-1.41-.27-1.13.79-1.96,4.19-.95,5.49l.86-3.55,1.84.15,1-2.32c-.5-.71-.76.39-1.33.5ZM58.49,185.19l-1.16.53c.04,5.11,7.86,7.02,8.06,1-1.73-.5-1.8.81-2.69,1.37-2.21,1.4-3.77-2.86-4.2-2.9ZM48.72,198.31c-.07-.31-.96-1.07-1.5-.84-2.14,1.12-2.9,1.6-2.02,4.04,1.06.03,3.67-2.5,3.52-3.2ZM169.87,75.17c-1.38.87-3.92,1.6-4.22,3.46-.15.93,3.03,3.67,3.39,1.75.08-.42-.45-1.28-.28-2.02.34-1.52,2.47-2.27,1.11-3.19ZM211.58,34.29c-1.49-.01-3.99,1.23-4.36,2.86,2.43,1.29,2.93-.82,5.22-1.28.9-.73.12-1.57-.86-1.57ZM66.56,184.52c-1.83-1.1-3.15-2.09-5.38-1.35.82,2.14,3.87,3.58,5.38,1.35ZM182.99,62.72c-3.2,1.25-5.84,4.4-3.7,7.73,2.21-2.29,1.38-5.26,4.71-6.05l-1-1.69ZM177.27,71.36c-.94,0-4.2.85-4.9,1.43-2.27,1.87-.17,4.67,2.38,4.22.91-.42-.75-2.21.46-3.55,1.57-1.72,3.81.11,3.91-.14.31-1.61-.27-1.97-1.85-1.95ZM223.7,26.71c-3.76-4.04-8.85,2.35-4.03,4.68l1-.98c-1.11-.7-1-1.64-.12-2.55,1.15-1.2,2.16-.13,3.15-1.15ZM187.03,59.35c-2.69,1.93-3.17,5.63-.34,7.65l2.02-1.25c-2.07-1.51-1.9-3.18-.42-5.05l-1.26-1.35ZM130.49,126.65c.06-.43-4.65-.58-5.24-.86-.76-.36-1.76-2.32-2.32-1.66-.53.62.28,6.38,1.85,6.9-2.85,2.08-5.63,3.87-3.23,7.55l5.38,1.67c.14-3.06,5.27-4.08,2.56-7.2,1.08,3.13-5.11,7.08-6.83,3.88-.48-.89,2.44-5.29,3.41-5.91l-2.29-3.71c1-1.21,1.62.72,3.53.79,1.13.04,2.49-.54,3.19-1.46ZM219.32,32.43c0-.25-1.69-.45-2.18-.4-3.04.32-4.22,3.13-2.68,5.64l1.84-.18c-1.34-1-.86-3.01.48-3.76.53-.3,2.56.22,2.55-1.3ZM50.41,197.98c-1.82,3.3,3.24,5.31,5.59,3.17.78-.71.54-1.73,1.13-2.5-1.04-1.26-2.11.9-3.86.87-1.14-.02-2.12-.73-2.86-1.54ZM48.06,201.01l-1.19,1.57c2.16,4.19,5.08,5.97,7.58.78-1.21-1.46-2.45.97-3.86.52-1.2-.39-2.12-1.72-2.52-2.87ZM181.28,69.25c-.84,1.18-1.28,5.81.54,4.73,2.17-1.3-.59-5.15,3.69-4.37v-1.67c-1.61-.07-3.18-.17-4.23,1.31ZM170.87,82.23c.87-.8,1.91-1.4,2.84-2.14.59-.47,1.31-.08,1.03-1.39-1.15-1.68-6.22,3.56-3.86,3.53ZM227.07,24.7c-1.73,1.17-3.41,2.78-1.86,4.87l2.78-3.19-.92-1.68ZM64.21,195.62l-1.17-.88c-3.48,2.55-2.49,1.55-5.38.54-.68-.24-1.05-.34-1.51.34,1.28,2.55,4.07,4.5,6.59,2.21.34-.31,1.51-2.06,1.48-2.21ZM60.85,190.93l-.51.83c1.5,1.74,3.51,3.04,5.72,1.83,1.09-.59,2.54-2.6,1.17-3.68-1.26,3.76-3.78,1.75-6.39,1.02ZM191.4,61.04c-4.3,2.79,2.83,5.31,2.14,2.81l-2.14-2.81ZM225.38,31.09c-3.33-2.39-8.33,4.05-3.54,4.87-.54-3.17,1.48-3.28,3.54-4.87ZM180.97,75.5c-4.15-2.93-6.84,5.08-3.26,5.53,2.23.28-.19-2.44.52-3.37l2.73-2.16ZM136.89,117.57l-.78,1.84,3.47,2.19c.62-1.99-2.36-2.34-2.69-4.03ZM217.65,40.85c-.06-1,3.41-2.74,2.51-3.53-.82-.71-4.25.78-4.54,2.18l2.03,1.34ZM186.99,68.26c-.88,1.2-.47,4.01,1.54,3.71-.18-2.47.69-4.15,3.31-4.1l.06-1.61c-.43-.42-4.35,1.24-4.91,2ZM48.72,211.77c1.4-.41,3.56-2.96,2.53-4.2-.64-.76-1.51,1.3-1.97,1.56-.55.31-2.19-.06-2.22.28l1.67,2.36ZM182.28,75.05c-.57.71-.55,1.82-.18,2.63,3.36,2.17,1.84-.92,2.74-2.03.79-.98,3.85-.78,3.02-2s-4.79.43-5.58,1.4ZM227.4,35.13c1.48-2.11.45-4.77,4.2-4.21.25-1.98-1.83-2.51-3.36-1.71-2.53,1.32-3.39,4.17-.84,5.92ZM59.5,204.89c-2.16.03-2.65-3.96-4.37-2.2.87,1.63,1,2.98,2.86,3.91,2.94,1.48,5.22-2.89,3.54-2.9-.52.42-1.36,1.18-2.02,1.19ZM65.56,197.65c-1.85,4.96-5.34,1.55-6.9,1.84-1.4.26,1.18,2.65,2.03,3.07,2.33,1.18,7.68-2.48,4.88-4.91ZM198.13,65.75c-.04-1.61-3.59-1.14-4.53-.15-.76.81-.86,3.54,0,4.37,1.96,1.88,1.54-2.06,1.95-2.7s2.59-.84,2.57-1.52ZM224.71,35.3c-1.95.03-5.66,4.4-2.69,5.89,1.21-.61,1.15-2.39,1.87-3.05.8-.73,2.68-.69,3-1.14.69-.96-1.76-1.7-2.18-1.69ZM134.2,125.64l-2.52,4.2c3.39.54,4.14-1.46,2.52-4.2ZM53.45,207.07c-1.37-.2.6,3.57,1.49,4.08,2.64,1.51,6.38-1.82,4.06-3.23-.42-.26-4.13,2.75-5.55-.85ZM180.31,83.56c.88-1.52,1.52-1.96,3.18-2.49l-.33-1.35c-2.81-.56-2.53,1.69-4.54,2.85l1.69.98ZM193.09,70.8c-1.59.86-2.54.02-3.74,1.82s-.16,4.86,2.04,3.22c-1.81-2.67,1.07-2.83,2.2-4.2l-.5-.84ZM51.76,210.77c-2.08,1.27.47,3.54,1.85,4.57,2.31,1.74,4.33-.03,4.03-2.72-3.08.93-3.75.82-5.88-1.86ZM234.47,28.92c-2.63.04-1.44,4.16-.34,4.19,1.2.03.32-1.79.8-2.21.8-.7,1.35-.56,2.23-.81-.04-.32-2.3-1.18-2.68-1.17ZM189.72,78.2c-3.28-2.58-6.77,1.77-4.58,4.87l1.71-.61c-1.01-2.54,1.23-2.89,2.87-4.27ZM200.15,63.73c-1.62.96-1.28,6.8.84,5.88,1.52-.66-.66-2.43.32-3.66l-1.16-2.22ZM233.46,34.46c0-2.41-7.67.75-5.22,4.21,1.26,1.78,1.53-1.94,1.64-2.05.79-.82,3.58-1.41,3.58-2.15ZM227.41,39.85c-2.87.82-6.77,1.21-4.38,5.04,1.13-2.38,5.19-2.39,4.38-5.04ZM199.49,72.47c.59-.07.09-2.8-2.53-2.1-3.1.84-3.38,3.77-1.18,5.8,1.55-.73.25-2.03.57-2.6.63-1.1,2.1-2.22,3.14-1.11ZM63.21,204.04c2.44,3.42,6.54,2.72,7.23-1.51-1.43-.23-1.92,1.31-3.02,1.69-1.46.51-2.88-2.34-4.2-.18ZM61.52,207.07c-1.71,1.23-.54,2.48.84,3.49,2.79,2.06,7.35-.07,6.23-3.83-2.83,2.43-4.1,3.9-7.07.33ZM112.67,155.93c-.47-.03-.48,3.86-.42,4.2.14.81,1.04,3.17,2.28,2.69,1.07-.42-1.6-2.9-1.28-3.6-.15-1.08,1.03-2.31-.58-3.28ZM117.38,151.22l-.85,1.85-.15,3.19c1.4-1.04,2.71-3.69,1.01-5.04ZM193.04,81.58c-1.33-2.24.2-3.61,2.57-3.22.27-2.64-3.92-1.96-4.89-.36-1.15,1.91-.04,5.12,2.32,3.58ZM240.19,34.46c-2.93-2.62-7.61-1.1-6.13,3.2l1.26.32,1.3-2.56,3.57-.96ZM233.79,39.5c-.45-2.85-8.24,1.65-4.91,5.21,2.07.01.95-1.62,1.72-2.71s3.34-1.56,3.19-2.5ZM108.97,160.98c-.2,0-2.28,2.77-2.43,3.11-.09.21-.53,3.56-.88,4.09-.27.41-1.41.62-1.4.87l2.36,3.03c.88-2.01-.76-4.81,1.68-5.72.28.03.91,2.6,1.5,1.18.41-.98.84-6.54-.83-6.56ZM55.8,216.83c-1.31.33-1.65,1.9-2.5,2.4-.55.33-2.53-.16-2.55.62-.04,1.36,1.73-.61,2.01.68l-1.18,1.5c3.37.47,5.91-1.95,4.21-5.2ZM188.68,85.64c.58-.19,2.22-.54,2.46-.88.77-1.97-.95-2.01-2.6-1.65-1.53.33-2.49.99-2.7,2.66.93-.41,1.19-.37,1.86.49.2-1.28.66-.53.97-.63ZM59.84,211.44l-.84,1.24c1.76,4.2,6.88,3.99,8.58-.23-.06-1.38-4.04.88-4.87.83-1.18-.07-2.1-1.02-2.87-1.84ZM136.89,134.39c-.6.92-1.54,1.9-2.07,2.8-.21.36.35.77.14,1.09-.14.22-.87.3-.95.64-.09.37,3,4.53,2.82,5.98l7.31-.92c-2.21-2.83-3.29-3.32-6.63-1.75l-1.28-1.79,3.55-3.53-2.88-2.52ZM206.88,70.46c0-1.33-4.42-.84-5.25-.15-1.59,1.32-.31,4.82,2.06,4.02l-.35-1.69,3.54-2.17ZM199.81,79.55c-2.08-2.23.04-2.44,1.86-3.19.5-.21,1.35-.41.66-1.02-.14-.12-3.26-.03-3.7.09-3.33.92-2.09,6.3,1.18,4.12ZM58.16,215.82c-2.13,4.77,6.54,6.51,6.22.85l-2.85,1.75-3.37-2.6ZM240.53,38.83c-5.82-4.18-7.24,6.06-5.21,4.54,1.61-1.2.52-1.73.74-2.07,1.42-2.23,2.89-1,4.47-2.47ZM230.78,47.82c.25-.06,4.21-3.12,3.52-3.76-.57-.53-4.62,1.35-5,2-.53.9,1,1.88,1.48,1.77ZM194.9,86.27c-.07-.56-.94-1.11-.57-1.85.82-1.78,3.95-1.11,2.63-3.01-4.08-.41-6.7,4.15-2.52,6.22.07,0,.49-1.14.46-1.35ZM246.25,35.13c-2.14-.82-4.98-1.03-6.03,1.35,2.08,2.57,2.02.46,3.17-.2.77-.44,2.23-.02,2.87-1.15ZM61.18,221.02c-1.62,1.65-2.9,1.06-4.37-.48l-.91,1.68c.6,1.24,3.14,2.9,4.44,2.52,1.18-.35,3.48-2.63,1.69-3.4l-.85-.32ZM209.91,68.78c-2.93-.59-2.82,4.36-.67,5.39l1.24-1.35-.69-1.87,1.8-1.15c-1.05-1.55-1.96,1.22-3.19.83l1.51-1.85ZM72.96,211.1c-.57.19-4.37-1.43-4.37-.33.84,1.25,1.55,2.37,3.2,2.55l1.17-2.22ZM209.23,75.51c-2.83-2.29-7.14-.24-5.87,3.53,1.11,1.25.85-.95,1.35-1.69,1.34-2,2.5-1.59,4.52-1.84ZM199.48,85.94c1.02-1.43-.13-2.64,1.84-3.74.89-.5,2.38.57,2.03-1.15-3.77-2.01-6.91,1.57-3.86,4.88ZM241.2,44.21c-1.64-.93-3.66-1.33-5.25-.03-1.88,1.54.07,6.5,2.39,4.88,1.05-.73-1.18-1.36-1.14-2.16l4-2.7ZM246.92,40.52c-2.06-2.66-5.84-2.71-6.94.84l1.56,1.85c.98-1.87,2.08-3.56,4.14-1.91l1.24-.78ZM71.96,214.14c-1.19,3.35-4.56.53-6.39,2.35,1.78,2.12,6.99,2.34,7.61-.85.22-1.12-.65-.95-1.22-1.5ZM195.28,87.45c-.38,3.6,4.75.35,3.69-.66l-3.69.66ZM247.6,35.14c-1.23,1.28-1,3.25.33,4.37l1.23-2.71-1.56-1.66ZM67.92,221.41l-4.2-1.05c-.21,1.47,1.52,2.63,2.69,3.09,3.25,1.28,5.9-4.34,4.21-4.6l-2.69,2.56ZM58.16,229.95l-1.68-1.01,1.68,2.36c.19-.98,1.34-.74,1.8-1.2.83-.83,2.02-3.5.73-4.34-1.53-1.01-2.27,4.21-2.53,4.2ZM205.54,84.59c1.64-2.14,1.07-4.33,4.54-3.2.28-2.71-3.74-2.48-5.01-1.03-1.09,1.25-1,3.3.48,4.22ZM214.62,74.84c-1.82-4.52-6.91,2.1-3.94,4.19l1.73-.61c-.71-1.94.58-2.72,2.2-3.58ZM204.53,85.61c-3.37-2.8-6.36,3.36-2.69,5.38,1.99-1.1-.59-2.04.28-3.56l2.41-1.82ZM244.57,43.72c-.74-.03-2.67.96-3.07,1.65-.75,1.29.39,5.54,2.4,3.57-2.06-1.92.28-4.67,2.45-2.94,2.83-.33-.63-2.24-1.78-2.28ZM62.87,224.58l-1,1c3,3.7,5.88,3.83,8.07-.67-2.75-1.42-3.81,3.37-7.07-.33ZM239.5,51.66c.87-.07,1.69-.17,2.55.14l.33-1.02c-1.64-1.5-4.39-1.52-5.17.85l.97,1c.74-1.79.63-.91,1.33-.97ZM137.23,151.56l-1.01,1.68,1.68,1-1.34,1.35,2.2,1.17c1.75-2.83.84-3.39-1.52-5.2ZM253.65,41.19c-2.83-2.77-8.54-.57-5.38,3.36.79-1.83,1.92-4.22,4.13-2.59l1.25-.77ZM168.52,131.03l-7.07-3.02.68,1.35-1.68,1,6.22,1.55,1.85-.88ZM64.22,231.14c-.93,0-2.05-1.23-2.7-1.86-1.78,2.44,3.34,4.97,5.25,3.52,1.09-.83,1.62-2.12.97-3.35-.77-1.16-2.07,1.69-3.52,1.69ZM73.31,217.59c-1.97.43-.09,2.6,1.51,2.43l-.17-1.17c1.26,2.91,4.14,1.13,1.52-.36-.13-.07-2.72-.93-2.86-.9ZM211.59,85.27c0-.79-5.4-2.03-6.15,1.51-.3,1.44,1.26,3.57,2.46,3.53,1.32-.05-.36-2.14-.19-2.85.66-2.7,3.87-.65,3.88-2.19ZM217.66,81.23l.49-2.17c-3.73-.7-9.95.9-5.55,5.21,1.47-2.24,1.75-4.86,5.05-3.03ZM217.65,75.17c-1.07.7-.56.38-.16.99.55.85,1.03,1.7,1.61,2.53l1.74-.61-.82-2.57-1,.97-1.36-1.3ZM70.66,223.56c2.38,3.2,6.97,2.97,7.18-1.52-1.28-1.07-2.08.85-3.36,1.07-.83.14-2.93-1.1-3.34-.72l-.48,1.17ZM202.69,91.49c-.19.33-.06,1.47.67,1.38l3.36-.7c.59-2.01-3.46-1.64-4.03-.67ZM253.99,45.57c-1.96-2.52-8.16,1.06-6.12,3.2,1.36,1.42,2.02-1.35,2.89-2.02.93-.72,2.44.16,3.22-1.18ZM124.46,172.35l-1.52-.44c.65,2.48-.27,3.72-.65,5.72s1.01,3.74-2.21,3.87l2.35,5.72c2.17-1.66.22-2.69.61-4.56,2.74-1.36,1.03-1.39.98-3.25,0-.4.2-3,.26-3.15.43-1.14,1.45-1.1,1.86-1.71.2-.3,1.72-3.41,1.78-3.65.24-1.01-.32-2.21-1.11-2.86l-2.35,4.31ZM248.27,50.61c-3.23-2.56-7.04,1.4-3.36,4.03l.48-2.56,2.88-1.48ZM160.45,138.44c-1.13,2.28-2.54,2.35-4.88,2.19.52,2.56,10.71,3.1,11.43,2.03.2-1.96-2.01-2.48-3.19-3.54l.68,2.02c-1.2,1.69-2.8,1.27-4.54.83-.02-1.45,2.09-1.98.5-3.52ZM256.35,40.52c-.77.59-1.95.74-2.21,1.83l1.2,2.53c1.15-.31,1.51-4.3,1.01-4.37ZM69.27,227.6c-1.78,1.44,1.77,3.48,2.86,3.58,1.78.17,4.5-3.3,3.03-4.42-1.05-.81-.97,1.39-1.65,1.89-1.38,1.02-3.29.15-4.25-1.05ZM213.28,90.32c1.93-3.39.43-5.91,5.55-3.54.57-1.75-1.54-2.63-3.02-2.71-3.26-.17-5.46,4.26-2.52,6.24ZM61.86,237.02c-1.28,1.05.31,2.08,1.01,3.01,5.44-2.14,3.37-10.57,0-2l-1.01-1.01ZM212.6,91.67c-3.95-4.23-7.46,2.27-3.02,5.05,1.77-1.13.22-1.38.12-2.51-.22-2.48,2.94-1.86,2.9-2.54ZM225.39,81.57c-.75-2.52-5.19-3.06-6.43-.87-.55.97-.31,4.4,1.56,3.72.83-.3-.82-2.18,1.32-3.02l3.55.17ZM250.51,53.32c.68-2.29,2.39-2.03,4.32-1.52,1.65-.23-2.36-3.85-4.74-2.23-.71.48-1.2,1.2-1.29,2.06s1.22,3.94,1.99,2.52c.22-.4-.36-.57-.28-.83ZM247.6,57.29c.07.01,1.03-.48,1.19-.61,2.23-1.88-1.51-2.19-3.03-1.51-.12,1.98,1.27,1.28,1.47,1.34.26.08.28.77.37.78ZM261.06,47.93c-1.07-1.82-6.27-3.53-6.91-.85,0,1.52,1.17,2.59,2.21,3.53.1-1.54-.71-2.13,1.17-3.06,1.39-.69,2.29.92,3.53.37ZM68.25,233.36l-1,.96c2.19,3.49,7.67,1.83,5.72-2.35-1.45,1.59-2.72,3.27-4.72,1.38ZM152.38,151.22l-2.02,1.35,3.87.51c1.23.5-1.14,2.14-1.68,2.34-.5.18-1.35-.11-2.02.06-3.16.85-1.86,2.73-3.34,3.53-.95.52-2.78-.52-3.56.95l2.01,4.04c.88-2.2,2.61,1.24,3.53-.16.71-1.08-1.51-1.64-1.51-1.85,0-.07.63-.61.76-1.17.46-1.83.18-2.81,2.27-3.89.26.75,1.56,1.45,1.79,1.82s-.83.95.06,1.37c1.83.28,2.47-1.45,3.87-2.18,0-.41-3.64-.8-1.85-1.51,1.38-.55,3.66-.1,3.68,1.7l4.23.48c-.02.65-3.81.81-4.54,1.21-.79.43-.22,1.11.17,1.13.08,0,.81-.52,1.5-.52.88,0,4.91.17,5.42.37.66.26.6,1.15,1.64,1.38,2.93.66,5.94-1.04,8.78-1.39,2.44-.3,5.6.08,8.07.34.6-.89-1.64-3.22,0-3.36,1.17.56,2.21,5.91,4.04,4.71.4-.26.3-5.56,1.67-4.02.16.18-.5,2.66,1.33,4.35.41.38,4.23,2.64,4.74,2.7.28.03.8.09.84-.15l-.83-2.52,1.85.83c1.03-.61.03-2.33.83-2.85.93-.61,2.41,1.31,2.53,2.18l.84-2.85,2.54.78c1.44-.17.27-2.83-.3-3.48-.45-.52-2.34-.25-2.24-2.7.08-2,4.24-2.2,2.53-3.87l-1.36,1.35-1.33-2.69-1.02,1c.07-2.11-2.57-2.67-4.22-2.18-1.49-1.19.62-2.13-1.17-3.2l.17,1.17c-1.22.35-1.06-.89-1.61-1.31-.15-.11-2.66-.67-2.81-.76-3.26-2.02-8.48-4.69-11.06-7.01-.66-.59-.84-1.7-1.65-2.34-.98-.77-4.96-.91-6.26-2.88-.64.58-.87.53-.17,1.17,1.52,1.38,3.7,1.82,5.22,3.2l-1.34,1.26-2.02-1.25c-.98,3.72,3.68,3.53,4.89,4.91.61.7.12,1.6.48,2.33.13.26,3.45,4.11,3.72,4.35.91.83,4.9.55,4.04,2.87-1.45-1.8-5.31-1.75-7.24-1.13-1.03.33-2,1.45-2.86,1.6-.75.13-8.27-2.06-10.27-1.71-2.25.4-.69.49-3.35.39s-5.36,3.08-7.58,1.85l1.34-.67-1.68-1.01c-.74.45.36.8.34,1.01-.02.17-1.96.28-2.01,1.34l-.67-1.34ZM80.38,224.59l-3.04,1.66c-.02,1.04,6,1.45,3.04-1.66ZM67.25,237.7l-.78,1.76c3.37,3.05,9.7,2.86,6.5-2.76-1.33,3.55-3.11,4.03-5.72,1.01ZM219.67,90.66c-3.57-3.55-8.5,1.54-5.38,4.71,1.42-.89.3-2.56,1.48-3.53,1.05-.87,2.96.37,3.9-1.18ZM80.71,227.61c-1.94,1.2-.88,2.59-3.54,3.44-.39.13-3.73-.23-2.68,1.1,2.12,2.71,8.01-.77,6.22-4.55ZM222.37,84.76c-1.73,0-4.02,3.31-2.19,4.38,1.43.84,1.27-1.64,1.67-1.94,1.23-.91,3.33,1.25,3.71.26.5-1.29-2.41-2.7-3.19-2.7ZM253.33,54.51c-3.04.25-4.08,3.61-1.01,4.85l1.48-2.87,2.89-.15c-.69-.92-2.19-1.92-3.36-1.83ZM176.61,131.21c-.34-.04-1.68.55-1.68.83l4.71,2.69c.98-1.58-1.94-3.38-3.03-3.52ZM226.74,80.9c-.98.22-1.22,5.05-.34,5.04,1.35-.02-.08-2.97,1.53-3.18l-1.19-1.86ZM261.74,52.63l.49-1.5c-3.4-1.87-8.15.27-4.87,3.86,1.24-1.68,2.04-3.98,4.38-2.36ZM74.99,234l-1.35,1.34c3.11,5.16,11.08,2.55,7.07-3.02-1.13.65-.71,2.09-1.13,2.88-1.02,1.88-4.16.7-4.58-1.2ZM220.01,95.7c-2.22-.78-5.64-.91-5.86,2.19-.08,1.17.6,2.68,1.99,2.35.24-.26-1.31-2.36,1.33-3.56.63-.28,1.72.78,2.54-.98ZM68.26,245.44c1.94,2.81,4.53-.39,4.54-2.86-2.57-.38-2.95,3.15-6.05,2.35l1.18,2.18.34-1.67ZM226.74,91.67c-1.21-2.02-5.27-2.3-6.42-.18-.56,1.03-.24,3.48,1.54,3.04-.22-1.72.09-2.86,2.03-3,1.26-.09,2.01,1.36,2.85.14ZM82.05,230.3c-1.58-.09.66,3.46,2.88,2.85.09-.03,1.53-1.07,1.5-1.16-.67-2.19-3.28.1-4.38-1.68ZM122.43,195.98c-.35-.02-1.08,4.28-4.57,3.04-1.12-.4-1.12-1.68-2.33-1.52.33,2.15.48,2.68,2.7,3.02,5.07.79,6.01-4.45,4.2-4.54ZM257.36,60.38c-1.11-1.42-3.19-.93-4.53-.21l-.16,1.56,4.7-1.35ZM232.13,88.97l.42-1.49c-1.7-1.48-3.2-1.65-5.28-.9-1.33,1.42-.35,3.2.83,4.41,1.08-.89-.17-1.99,1.16-2.91,1.03-.71,2.11.21,2.88.89ZM263.41,56.34c-2.34-2.61-4.49-1.64-6.3,1.01l1.26,2.01,1.18-2.41,3.87-.62ZM268.47,54.65l.42-1.5c-1.64-1.21-4.68-2.98-5.94-.45l1.48,2.62c.97-2.3,2.38-2.56,4.04-.67ZM74.66,241.15l-1.01.92c2.9,4.33,8.07,1.47,6.89-3.19-2.12-.37-.94,2.93-2.92,3.32l-2.96-1.06ZM113.35,203.04c-1.05.76-.5.82.16,1.53,2.81,3.01,7.58,1.13,5.56-3.21-1.12,2.98-3.74,5.03-5.72,1.68ZM225.06,96.72c-2.74-4.02-6.93,2.63-4.55,4.18,1.89,1.23,1.04-1.41,1.05-1.64.25-3.33,2.13-.8,3.5-2.54ZM72.64,245.89l-1.35,1.23c2.45,2.48,8.48,3.04,7.56-1.84-1.43-.28-1.94,1.4-3.02,1.69-.76.2-2.38-.85-3.19-1.08ZM81.39,238.37c2.49,4.37,6.83-1.92,4.89-3.88-1.57-1.58-1.12,1.27-2.01,2.4-1.3,1.66-1.75,0-2.88,1.48ZM147,172.09c-.49,1.1-1.8,2.18-2.17,3.19-.34.91.38,1.95.26,2.78-.17,1.14-1.24,2.26-1.33,3.62-.06.87.56,1.75.55,1.85-.19,3.18-2.8-4.63-3.02-4.38-.87-.05-.69,5.21.33,5.72l-1.17.17-1.68-2.7c.31,2.48.06,4.18,2.47,5.55-.56.59-1.12,2.3-.44,2.86,1.07.87,2.04-2.91,2.48-3.35.6-.6,1.91-.03,2.19-1.6.15-.85-.75-1.49-.67-1.94s1.02-1.22,1.3-2.19c.45-1.6-.06-4.46.1-5.05.33-1.21,2.56-2.69.83-4.54ZM260.39,59.57c-2.86.31-3.86,3.47-1.35,5.18l1.84-3.09,2.7.57c.53-1.41-1.99-2.79-3.19-2.66ZM232.12,92.34c-1.91-2.25-6.93.86-6.21,3.2.45,1.47,2.59-1.63,2.99-1.89.96-.61,2.45-.14,3.22-1.31ZM125.12,195.98c-.94.72-.52.55-.23,1.19,1.33,2.96,4.19,1.39,6.29.15l-1.3-.68.29-1c-.68,2.19-3.61,1.73-5.05.33ZM266.78,55.86c-2.52-.27-4.9,3.06-2.35,4.85l2.18-2.53,3.03.68c.45-1.18-1.7-2.87-2.86-3ZM122.1,200.35l-1.17,2.17c2.56,1.44,6.83,2.14,8.44-.98.29-.57.67-2.17-.38-2.03-1.45,3.2-4.7,3.48-6.89.84ZM234.82,87.64c-1.55,1.18-2.17,2.26-1.85,4.2l2.34-.66c-.77-1.39-.38-2.09-.5-3.53ZM225.73,103.45c-3.25-3.71-8.31.01-4.37,3.7,1.15-.84-.47-1.66.87-2.83s2.53.12,3.5-.87ZM231.79,99.4c.7-1.89-1.96-3.09-3.54-2.91-5.03.57-3.54,6.62-1.34,5.76.94-.37-.32-1.45-.02-2.35.85-2.5,3.28-1.84,4.9-.51ZM80.71,243.09c-.51.08-1.04,1.21-.83,1.84,3.56,1.82,6.52-.49,6.38-4.36-1.21-1.29-1.27,1.47-1.7,2.05-1.91,2.55-3.48.42-3.85.48ZM72.99,252.31c-.47.11-.7.58-1.03.87,2.28.36,2.84,2.32,4.72-.14.76-.99,1.45-2.81-.19-3.06-.87.79-.95,2.4-2.36,2.7-.37.08-.96-.41-1.14-.37ZM91.48,237.15c-.53.11-1,1.16-1.85,1.39-.22.06-3.82-1.02-2.69.68,1.3,1.95,5.27.51,5.88-1.52-.35-.09-1.25-.57-1.35-.55ZM259.38,68.45c.08-1.63,5-1.13,3.86-2.86-.9-1.37-6.2.3-3.86,2.86ZM120.41,205.45l-1,.96c1.3,1.99,5.42,2.25,5.93-.52.21-1.12-.66-.94-1.23-1.5-.58,2.06-2.07,2.52-3.7,1.06ZM153.73,172.09c-1.76,2.73,1.18,1.72,1.54,2.14l1.83,3.24.33-3.7-3.7-1.67ZM157.76,168.06c-2.28,0,2.98,3.85,3.37,4l1.68-1.65c-.39-.65-.7.3-1.24.09-1.24-.48-2.51-1.86-3.81-2.44ZM239.19,94.7c-1.89-3.45-8.98-1.72-6.75,2.19.38.67.14.81,1.21.66l1-2.92,4.54.07ZM270.15,61.72c-2.96-2.14-6.25-1.17-5.88,2.86,1.18.27,1.91-1.63,2.49-1.89,1.03-.47,2.57.45,3.4-.97ZM117.39,209.77l-1.01,1.01c1.74,4.78,10.45.87,6.91-1.84-1.07-.82-.95,1.38-1.65,1.89-1.45,1.07-3.31.36-4.25-1.06ZM80.05,247.9l-1.35,1.24c1.98,3.45,6.87.61,5.54-2.52-.65-1.54-1.6,1.96-2.68,2.07l-1.51-.79ZM134.21,200.18c-1.24.04-2.44-1.3-3.53-1.68-.06,4.72,8.27,4.21,6.56-.5-.77.73-1.91,2.14-3.03,2.18ZM271.85,57.52c-1.67.77-1.66,3.19-.35,4.2l1.49-1.87,2.38.69c.63-1.95-2.28-3.59-3.51-3.02ZM90.48,240.73c-1.34.69-.46,2.5-1.17,3.21-.76.76-2.25-.02-2.89.45-.22.16-1.37,1.54-.49,1.9,4.05,2.03,6.24-1.95,4.55-5.55ZM232.46,104.12c-2.46-2.79-5.75-1.53-7.04,1.69l2,1.34c.76-.7.23-1.71,1.13-2.4,1.52-1.16,2.82.49,3.91-.63ZM269.81,66.77c-2.84-4.51-8.51.49-4.37,3.7l.95-2.74,3.42-.95ZM78.69,252.51l-1,1.01c2.46,2.77,9.31,2.95,6.05-2.01-.43,3.24-3.11,2.98-5.05,1.01ZM128.16,203.76l-1.34,1.3c2.15,2.79,6.9,1.54,6.55-2.19-1.14-1.29-.99,1.13-1.44,1.57-1,.97-2.99.43-3.76-.69ZM230.11,109.17c0-.42-5.67-2.8-6.25-.18l.86,1.5c1.64-1.58,3.8.29,5.39-1.32ZM239.53,99.07c-1.77-2.4-4.36-1.89-6.23.15-1.44,1.57-1.32,3.67,1.03,3.72.45-.3.21-2.98,2.93-3.65.71-.17,1.61.85,2.27-.21ZM125.46,207.75l-1.01,1.01c1.03.97,1.12,2.1,2.5,2.69,3.44,1.46,6.5-2.88,4.74-4.19-1.03-.76-1.37,1.48-1.82,1.89-1.48,1.35-3.5-.06-4.41-1.39ZM276.2,64.42c-2.26-3.42-7.92-2.56-5.04,1.68,1.03-3.64,3-.5,5.04-1.68ZM85.76,248.9l-1.34,1.25c2.64,2.72,7.7,1.01,6.89-3.19-1.82-.08-1.62,2.25-3.61,2.66-.74.15-1.29-.54-1.93-.72ZM240.88,94.37c-2.15,1.6-1.42,4.29,1.52,3.86,1.19-.53-.92-2.82-1.79-2.86l.28-.99ZM123.46,213.26c-.55-.1-1.62.73-1.18,1.4.77,1.18,4.86,1.84,6.07.99s2.08-3.46.65-3.03c-3.54,3.66-3.49,1.04-5.54.64ZM267.79,74.85l.87-1.17c.25-1.3-4.07-3.42-4.9-1.51l4.03,2.69ZM95.67,242.72c-.59,2.37-4.31,1.42-4.18,3.06.13,1.74,7.75,0,5.2-4.2-2.26-.18-.96.9-1.02,1.14ZM170.22,173.78c-1.6-.81-3.13-2.47-5.04-1.69.69,2.2,3.14,2.46,5.04,1.69ZM235.16,103.62c-2.42.04-4.66,4.38-1.68,5.55.86-.9.57-2.39,1.82-3.08,1.17-.64,2.91,1.14,3.89-.62,0-.46-3.53-1.86-4.03-1.85ZM269.14,68.96c-.58,1-.48,2.62-.16,3.69,2.43.23.33-2.04,2.32-3.07,1.6-.83,2.42.94,3.72.05.86-1.33-3.34-5.06-5.88-.68ZM81.04,260.65c5.05-1.7,1.79-6.84-1.08-1.51-.81,1.49-.56,2.07,1.08,1.51ZM133.55,205.73c3.17,3.37,7.79-.51,6.79-4.53l-2.25-.68c-.32.11,1.48,2.58-.03,4s-3.09-.29-4.51,1.21ZM236.17,111.19c-2.89-3.29-10.42-.53-6.39,3.69,1.3-1.43.83-2.94,3.21-3.22.92-.11,1.89.72,3.18-.48ZM245.92,101.43c-3.81-4.8-9.41-.71-5.04,3.7,1.01-1.33-.53-2.56,1.16-3.87s2.63,1.58,3.88.18ZM84.76,255.87c2.85,2.04,6.21.49,5.54-3.2-2.23-1.38-1.7,1.37-2.34,2.04-.7.72-2.51-.2-3.2,1.16ZM126.48,216.84l-1.48,2.57-3.91.12c.97,1.71,3.63,2.61,5.25,1.4.93-.7,1.46-3.44.13-4.08ZM181.32,166.03c-.03-1.34-4.97-.72-5.88-.84v1.67c2.3-1.33,3.99.88,5.88-.83ZM95,247.82c-.09.4.92.99-.28,2.2-1.41,1.42-3.64-.43-3.73,2.02,2.67,1.53,5.17,1.29,5.99-2.05.58-2.38-1.49-4.23-1.97-2.17ZM281.59,67.11c-1.96-3.3-7.64-2.83-4.71,1.34,1.12-3.22,2.77-.06,4.71-1.34ZM133.21,213.24c3.38.1,5.84-1.78,4.55-5.3-1.61-.36-.8,1.4-1.48,2.38-1.36,1.95-2.29.88-3.57,1.01-2.52.26-2.25,1.84.5,1.92ZM275.2,74.18c-1.16-2.15-4.79-2.05-5.71.14-.52,1.23-.14,4.57,1.04,2.38.86-1.6.94-3.34,3.42-1.75l1.25-.77ZM84.77,259.4c-.46.11-.7.55-1.02.85,2.55,2.37,7.4,1.37,5.88-2.86-1.35-.08-1.69,1.56-2.66,2.07-1.05.56-1.89-.13-2.2-.06ZM143.97,200.69c-1.48.02-.11,2.9-.64,3.88-.66,1.21-2.19,2.38-3.57,1.66-2.02,1.05.68,2.48,2.7,1.21,1.52-.96,2.98-2.66,2.67-4.57-.09-.58-.67-2.19-1.16-2.18ZM245.25,106.82c-.19-3-11.22.34-6.05,4.71.85-1.37,1.84-2.93,3.2-3.85,1.06-.72,2.04.07,2.85-.85ZM281.48,71.15c-1.97-2.82-4.64-3.05-6.52,0l1.59,2.35,1.48-2.07c1.2-.53,2.11.16,2.9,1.06l.55-1.34ZM90.65,256.04c-1.04,1.57,3.39,2,4.73,1.2s1-1.89.97-3.21c-1.53-.44-1.66,1.46-2.67,1.85s-2.51-.63-3.04.15ZM128.83,217.86l-.51,1.17c.35,1.78,5.91,1.49,6.67-2.02.31-1.44-1.21-4.53-1.62-2.36-.09.48.17,1.19,0,1.69-.64,1.74-3.01,2.67-4.54,1.52ZM172.91,175.12l-2.02,1.34,3.03,2.36c2.22-1.49-.99-1.44-1.01-3.7ZM97.21,252.17c-.03.65,4.9,1.61,4.91-2.19,0-2.12-1.99-3.24-2.21-1.86-.03.17,1.16,1.4.16,2.57l-2.86,1.48ZM241.55,113.88c-1.56-2.53-8.23-2.4-7.25,1.18.72,2.63,2.26-.39,3.35-.84,1.46-.59,2.74.74,3.9-.34ZM184,168.03c.95-.79,2.88-.43,2.53-2.15-2.51-.55-5.19-1.08-2.53,2.15ZM248.47,103.45c.08-.31-.41-2.49-1.38-1.84-.72.49-1.68,2.87-1.33,3.7.49,1.16,2.61-1.47,2.71-1.86ZM271.84,77.7c-1.02,0-3.5,2.19-2.02,3.2,1.45-1.91,3.54.19,5.05-1.01l-3.02-2.2ZM282.6,66.78l-.86,2.88,1.53,1.15c1.41-2.06.65-2.42-.67-4.03ZM140.94,210.88c-.33.06-2.36-.68-2.35.58.01,2.03,10.27.08,7.22-4.87-2.06-.3-1.02,1.14-1.35,2.01-.66,1.76-1.92,1.99-3.53,2.28ZM88.46,262.27c-.61,2.15-2.63,3.77-1.01,5.71,2.23-1.67,3.15-3.54,1.01-5.71ZM233.15,122.29c-.56-4.89,4.61-2.83,5.22-3.2,1.88-1.14-2.83-3.37-5.08-1.65-1.78,1.36-1.51,3.33-.14,4.85ZM280.25,77.2c1.64-1.42-1.25-2.87-2.53-2.9-2.76-.06-4.25,3.61-1.85,5.25.81.04-.14-3.7,2.87-3.23.6.1,1.1.44,1.51.88ZM90.81,260.59c-1.31,1.41-.01,2.25,1.52,2.5,2.61.42,4.39-1.86,4.03-4.35-2.03-1.24-1.38.81-2.03,1.72-1,1.39-2.41,1.33-3.52.14ZM131.53,221.21c1.45,2.2-1.69,4.2-3.88,3.21-.64.5-.56.51,0,1.02,2.82,2.56,6.43-.61,5.33-4.06l-1.45-.17ZM136.23,216.52l-.5.84c1.57,2.03,5.04,1.03,5.9-1.35.45-1.25-.21-3.37-1.85-3.02l-.26,1.26.75.24c-.68,1.57-2.39,3.23-4.03,2.03ZM246.56,106.97c-.68,1.24.45,3.02,1.54,2.31.34-.22,2.34-3.16,2.03-3.64-1.14-.88-2.98.26-3.56,1.33ZM101.58,253.19c-.83.94-.24,1.93-1.48,2.85-.96.71-2.43-.15-3.23,1.18,3.22,3.36,7.87-1.19,4.71-4.03ZM106.96,251.16c-3.79-2.16-6.26,2.3-1.85,1.09.73-.2,1.37-.46,1.85-1.09ZM250.3,111.86c-1.92-1.26-5.97-3.25-7.44-.52-.17.32-.27,1.48-.13,1.7.75,1.15,2.36-.84,3.36-1.06,1.54-.35,3.01,1.76,4.2-.12ZM287.65,73.85c-.83-1.01-3.67-2.61-4.9-2.21s-1.69,4.67.2,4.9c.67-.05-.2-2.66,2.86-2.88.76-.05,1.35.75,1.84.2ZM179.64,178.48c-4.64-1.92-2.79,4.91.68,2.02l-1.22-.82.54-1.2ZM186.71,176.81c-2.61.99-4.34-2.12-7.06-1.02,3.63,1.68,6.37,4.16,9.42,0-1.23-1.5-2.79-2.89-4.37-1.01l2.01,2.02ZM186.38,171.75c.51,2.23,7.44-3.33,6.52-5.5-5.13-2.71-3.15,3.56-6.52,5.5ZM279.91,81.58c-3.03-3.16-5.46-.96-5.21,2.86,1.45.15,1.84-1.84,2.67-2.29.71-.38,1.79,1.01,2.54-.57ZM90.81,265.97c-1.97.84.48,2.57,1.84,3.13,4.17,1.71,4.73-2.3,3.39-5.31-1.72-.35-.65,1.13-1.15,2.03-1.06,1.9-2.82,1.76-4.08.15ZM144.99,211.8c-1.31,1.2.79,2.49.05,3.88-.99,1.84-3.4.98-3.24,3.01,5.11.41,7.24-3.24,3.19-6.89ZM147.34,209.52l-.84.76.33,1.34c2.04.16,5.36.16,5.38-2.69-1.84-1.08-2.77,2.26-4.87.59ZM247.95,116.24c-2.45-3.14-7.78-2.46-7.23,2.19,1.61,1.22,1.42-1.16,3.02-1.7,1.12-.37,3.18,1.33,4.21-.49ZM134.89,222.58c-1.73,1.89,2.3,1.67,3.2,1.2,1.94-1,3.87-4.28.68-4.41.38,2.31-1.93,4.33-3.88,3.2ZM244.92,121.96c-1.33-2.13-6.84-2.79-8.12-.53-.66,1.18-.03,3.34,1.41,2.26.56-.42.56-1.39,1.83-1.89,1.96-.77,3.44,2.32,4.89.16ZM102.03,259.89c-.68,2.7-2.64,2.74-4.83,1.71-.73,1.42,1.3,2.56,2.53,2.82,3.39.7,5.12-3.79,2.52-5.85-1.14.53-.16,1.06-.22,1.32ZM285.3,80.24l.77-1.76c-1.61-1.49-4.6-2.4-5.49.22-.18.52-.07,2.11.19,2.37.83.83,1.79-2.18,2.68-2.06l1.86,1.23ZM107.63,252.52c-.35.9-.09,2.07-.86,2.84-.64.63-4.43.73-3.34,2.38,1.95,2.95,9.64-3.15,4.2-5.22ZM241.89,127.01c-1.58-3.06-6.72-2.99-7.56.5,2.42.08,4.59-1.67,6.57.5l1-1ZM277.88,88.13c2.04.31,1.27-2.48-1.17-2.95-1.65-.32-1.58,1.18-2.52,2.13.71.97,1.58.15,2.54.24.38.04.79.53,1.15.58ZM132.71,228.8c-1.43,1.31,3.04,1.73,4.03,1.2,3.8-2.03,1.45-6.09.34-4.9,1.07,4.13-4.03,3.38-4.37,3.7ZM251.99,112.35c-.98-.15-3.84,1.85-3.19,3.38.45.46,5.53-1.3,5.54-1.84-.64-.28-1.88-1.47-2.35-1.54ZM284.97,85.28c-.17-6.29-8.75-2.31-4.04,2.02,1.23-.63,0-1.26.14-1.84.45-1.97,2.94-1.7,3.9-.18ZM140.63,223.06c-2.79.65,1.17,2.72,3.54,1.4,2.04-1.14,2.28-4.06.14-5.25-1.3.94.62,1.83-.51,3.21-1.29,1.58-2.58.51-3.18.64ZM148.68,214.83c-1.99,1.17,3.1,2.62,3.37,2.55,3.11-1.91,2.56-3.8,0-5.91-1.3.8.18,1.44.18,2.35-.01,1.79-2.38,2.4-3.55,1.01ZM188.4,177.82l-8.41,5.72c4.34,4.71,8.32-1.34,8.41-5.72ZM146.67,222.23c5.08,2.31,5.89-4.98,1.01-5.05,2.63,2.12,1.72,3.75-1.01,5.05ZM97.88,267.66c-2.24,2.24,3.31,2.97,4.55,2.51,2.34-.88,3.18-3.87,1.18-5.54-.75.58-.34,1.41-.86,2.19-1.22,1.83-3.22,2.43-4.87.84ZM254.34,119.27c-1.89-2.65-6.04-3.38-7.77-.17-.98,1.82.81,3.65,1.82,2.64.66-.65-.03-5.09,4.6-1.17l1.34-1.3ZM96.2,270.01l-1.68,3.03,1.69.98c1.39-1.28,1.69-2.84,0-4.01ZM104.96,262.07c-.45.12-.69.59-1.02.87,3.68,3.96,8.43-.84,5.55-4.55-1.47-1.89-1.03,1.95-1.06,2.1-.71,3.13-2.82,1.41-3.47,1.57ZM137.25,235.01c1.26-1.12.38-4.51-1.52-3.86-.34.11-.33,2.54-.26,2.65.28.44,1.4.63,1.78,1.2ZM217.33,156.11c.36,0,.77-.24,1.09-.43l.04-1.53c-1.93.04-4.34-1.71-5.84.12,1.4.15,3.51,1.83,4.7,1.84ZM291.36,83.6c1.63-1.09-1.52-3-2.53-3.37-2.82-1.06-4.48,2.57-2.68,4.21,1,.91.99-1.28,1.32-1.57,1.07-.9,3.02-.27,3.88.73ZM251.99,125.67c-2.65-3.3-7.27-4.17-9.41,0,2.37,2.27,5-2.94,7.73.9l1.68-.9ZM283.28,91.68c2.96-3.09-3.43-4.85-4.93-2.21l.39,3.72,2.68-2.74,1.85,1.23ZM138.94,229.42c-.45.12-.69.6-1.02.89,1.13.7,2.12,1.44,3.53,1.52,6.05.36,4.39-7.39,1-6.06,2.41,6.82-2.29,3.32-3.52,3.65ZM204.54,167.72c-3.88-2.24-4.31,2.38-6.05,4.72,1.7.94,6.09-4.06,6.05-4.72ZM158.78,213.68c-.41.04-2.06.49-2.86.64-1.87.36.21,1.62,1.35,1.7,1.26.1,2.41-.59,3.19-1.54.01-.29-1.27-.85-1.68-.81ZM244.93,126.71l-4.66,2.64c1.09,5.47,1.21.48,4.15.48,1.45,0,2.06,1.09,2.99,2.03l1.05-.65-3.53-4.51ZM145.67,224.59c3.2,2.06,2.57,3.71.15,6.23-.41,1.38,2.01.66,2.89-.65,1.71-2.56.47-8.66-3.05-5.57ZM154.75,216.18l-1.01,1c.76.49,1.67,2.14,1.13,2.88-.83,1.15-2.42-.83-3.15.48,4.49,4.08,6.75-.73,3.02-4.37ZM98.22,273.38c-1.82,1.88,3.18,2.08,4.2,1.76,2.38-.75,3.8-3.1,1.52-4.79-1.41,1.36-3,3.77-5.05,2.36l.33,1.01-1-.34ZM286.14,89.02c.24-1.1,2.03-2.01,3.05-1.41.13.08,2.61,2.93,2.03.2-.76-3.54-8.47-3.24-6.08,1.69l1.35.32c.4-.18-.4-.54-.34-.81ZM245.26,134.41c-1.35-2.05-5.25-1.86-6.94-.49-.45.37-.32,3.02.37,2.33,1.72-3.09,4.47.72,6.57-1.84ZM115.05,257.9c-1.25,2.26-.82,3.91-3.89,4.55v1.66c3.76-.13,6.02-2.79,3.89-6.22ZM138.59,235.03l-.5.82c3.62,3.08,9.72,1.21,6.23-3.85-.8.02-1.46,4.92-3.7,3.7l.34-1.01c-.75.83-1.48,1.16-2.36.34ZM151.72,221.89l-1.01,1.01,1.86,2.69-1.69,2.85c4.83.4,4.1-4.51.84-6.56ZM109.66,264.63c-.82.11-.06,3.1-2.17,3.86-.89.32-2.66-.57-2.36,1.68,3.57,1.52,8.52-3.17,4.54-5.54ZM257.71,121.29c-3.02-3.18-8.12,3.02-3.2,3.86-.31-2.28,1.96-2.5,3.2-3.86ZM286.65,93.19c.82.02,1.78,1.29,2.85,1.01-.51-5.53-5.7-3.48-6.88.85l2.52.84-.28-1.7c.22-.41,1.33-1.01,1.8-1ZM157.44,220.89c5.01,3.14,8.93-1.01,3.69-5.04-.57.98.67,1.9.57,2.86-.3,2.78-4.3,1.07-4.27,2.19ZM198.16,179.5c-2.06,1.41-2.91,2.29-1.01,4.37.5,0,1.59-3.66,1.01-4.37ZM258.72,129.03c-2.76-2.96-7.5-4.16-8.74.68,1.21,1.37,2.78-1.24,4.54-1.23,1.25,0,1.7.92,2.69,1.4l1.51-.85ZM104.28,275.4l-1.69,1c1.47,1.33.21,3.63.67,5.38,2.04-1.85,2.44-4.04,1.02-6.39ZM104.95,274.73c3.13,2.43,7.16-.6,6.55-4.21-2.38-1.43-1.3,2.74-4.04,3.1-.49.06-1.07-.29-1.52-.5l-1,1.62ZM115.73,269.98c.85-1.84,2.45-5.58-.84-5.85.89,4.07-2.79,2.55-3.03,5.38l3.87.47ZM158.11,228.19c3.14-2.1,2.24-4.94-1.01-6.29-.41,1.08,1.76,1.85,1.48,3.27-.4,2.02-2.51,1.55-2.48,1.76l2.02,1.25ZM282.59,96.47c-1.34,1.43-1.41,3.38-.81,5.14l1.16-.16c-1.03-.68-.04-1.68.85-2.1.93-.45,2.34,1.3,3.02.26.1-2.51-2.56-2.44-4.22-3.13ZM150.37,229.97c-1.19.86.33,1.48.23,2.85-.13,1.69-.86,1.92-2.38,2.22-1.03.2-2.35-.91-2.05.79,4.54,2.46,8.47-2.4,4.2-5.87ZM251.65,137.44c-2.33-4.04-11.32-1.75-7.4,2.69.7-1.1.94-1.91,2.17-2.56,2.11-1.12,3.51.95,5.22-.13ZM245.93,142.49c-2.07-1.4-4.97-3.34-6.39-.33.83,1.37,1.12-.33,1.91-.17,1.34.27,3.08,2.58,4.48.51ZM255.36,133.07c-2.5-3.46-5.72-2.22-8.07.67,1.36,1.36,2.2-.69,3.87-.9.98-.13,2.22.36,2.96,1.01l1.24-.78ZM297.07,91.35c-1.55-2.74-3.99-4.06-6.26-1.19-.8,1.01-1.05,2.75.71,3.04l1.65-2.19,3.89.34ZM154.92,228.13c-.34.39,1.12,2.45.66,3.7-.39,1.05-3.14,2.31-2.34,3.01,2.16,1.89,6.82-6.35,1.68-6.72ZM295.73,96.06c-2.18-3.21-7.97-2.02-7.58,2.21l1.53,1.15c1.31-5,3.4-1.21,6.05-3.36ZM121.1,263.96c-.96,2.37.05,4.58-3.53,4.89-.52,1.36,1.78,1.99,2.68,1.68,2.97-1.03,3.13-4.74.84-6.56ZM106.65,279.28c-.47.15-.71.5-1.02.83,1.53,1.32,3.63,1.51,5.52.89,1.53-1.46,1.27-3.45.25-5.11-3.07-1.19-.15,1.58-1.87,3.02-1.09.91-2.6.28-2.87.37ZM162.16,226.27c3.65,2.15,6.79-3.66,2.35-5.04-.65.56.59,1.08.84,1.84.57,1.7-1.65,3.19-3.19,3.19ZM116.39,270.02c-.96,1.03-.04,2-1.14,3.23-.94,1.05-1.75,1.11-3.06.98-.35,1.65,1.77,2.3,3.02,1.85,2.64-.95,3.16-4.19,1.18-6.06ZM151.05,236.71c-1.79,1.41.8,3.57-1.68,5.05l2,.61c1.94-1.37,1.63-4.34-.33-5.66ZM160.81,226.95l-.79,1.24c1.69,2.07,1.14,3.59-1.56,3.8,3.63,2.88,5.74-2.71,2.35-5.04ZM294.05,102.45c-2.98-3.38-9.82-3.55-7.74,2.35l2.84-2.53c1.63-.59,3.6,2.31,4.9.18ZM249.3,147.87c3.21-3.85-6.78-5.43-6.9-.83l1.18,1.16c1.26-3.13,3.8-2.87,5.72-.34ZM254.34,140.14c-2.58-2.67-6.86-.95-7.32,2.71,2.27,2.14,1.97-.69,4.13-2.06,1.58-1,2.19.49,3.2-.65ZM258.71,136.99c.78-.21,1.37-1.2,1.18-2.06-2.75-.61-6.82-1.08-7.09,2.7,1.4,1.58,1.9-.26,3.39-.86,1.21-.48,2.27.28,2.52.22ZM258.02,131.2c-.25.38-.69,1.74-.46,2.01,5.02,1.68,2.77-5.47.46-2.01ZM170.23,219.54l-1.01,1c2.36,1.86.8,3.45-1.68,3.7,3.7,2.8,6.43-2.07,2.69-4.71ZM241.06,149.38c-.71,1,.62.94,1,1.11.85.38,1.73.71,2.69.57.61-1.77-3.02-2.62-3.69-1.68ZM159.98,236.37c0-1.03-1.5-2.32-2.2-3.03-.43,2.3,1.28,3.92-1.51,5.41-.81.43-1.89-.29-2.52.64.08,1.79,6.22.31,6.23-3.03ZM290.01,105.82c-1.77-1.16-4.57-.6-5.38,1.35.41,1.99,4.67-.49,5.38-1.35ZM123.46,269.68c-1.43,2.74-.76,4.44-4.78,4.3l-.1,2.27c4.25.33,6.51-2.5,4.88-6.57ZM113.03,280.8c-2.57.77.78,3.77-2.36,5.02l1.01,1.01,1.13-1.12-.13-1.23,1.01,1.67c1.4-1.63,1.04-4.08-.67-5.36ZM117.6,278.08c-.52,2.02-2.7,1.77-4.23,1.69,2.24,2.72,5.54,1.34,5.93-2.01-.42-.86-1.08-1.37-2.06-1.18-.24.27.44,1.19.36,1.5ZM167.2,225.94c-1.34,1.14,1.16,1.91-.17,3.55-1.15,1.41-2.19.62-3.52.82,3.35,3.51,7.49-1.22,3.7-4.37ZM174.26,218.87c-1.34.83.39,1.45.86,2.52.66,1.49,1,2.85-.18,4.21,2.46,1.83,3.05-2.1,2.35-3.88-.65-1.63-1.76-1.87-3.03-2.86ZM297.75,96.97c-2.69,0-4.31,2.12-3.19,4.64,1.8.09,1.3-1.86,3.35-2.28,1.44-.29,3.01,1.6,3.36.6.55-1.58-2.13-2.96-3.53-2.96ZM129.99,269.68c-.12-1.1-1.48-3-2.66-2.52s-.6.76-.47,1.36c.59,2.67.87,3.03-2.05,4.52,1.49,3.03,5.4-1.26,5.18-3.36ZM160.81,237.04c4.66,4.04,7.98-3.64,2.18-4.87l1.77,2.85c-.12.52-1.25,1.27-1.78,1.57-1.13.62-1.4-.73-2.17.45ZM172.25,233c6.95-1.64,2.47-10.57-3.02-6.39,1.52.54,3.42-.58,4.41,1.15,1.25,2.17-1.83,3.28-1.39,5.24ZM248.29,155.61c1.42-1.43-.59-2.82-1.85-3.36-1.87-.78-3.41.15-4.54,1.68,2.81,1.24,4.21-2.36,6.39,1.68ZM263.42,141.81c-2.84-3.4-8.89-3.89-9.23,1.52,3.66.33,4.14-4.14,8.07-.31l1.16-1.21ZM295.73,108.85c-2.14-2.14-6.32-2.53-8.23.14-1.22,1.71-.06,4.18,2.01,2.71.18-.13-1.18-2.69,2.26-2.98,1.41-.12,2.68,2.12,3.95.12ZM244.92,157.63l-2.52-2.2-1.51.86c1.24.92,2.4,2.87,4.03,1.35ZM254.35,152.25c-1.51-3.58-5.21-5.24-7.59-1.52.87,2.42,2.45-.75,4.4.01,1.13.44,1.81,2.11,3.19,1.5ZM252.33,148.21c1.58-2.52,3.29-2.94,5.55-.82,2.8-.72-.81-2.65-2.02-2.97-2.17-.57-5.96,1.75-3.53,3.79ZM299.77,103.46c-2.75-2-6.64-.63-7.22,2.85,1.71.07,1.97-1.9,3.69-2.32,1.23-.31,2.57,1.11,3.53-.53ZM121.43,278.9c-.69.07-2.09-1.01-1.84,1.52.12,1.26,3.88.64,4.74-.1,1.57-1.37,1.37-3.23,1.31-5.09l-1.33-.33c-.33.28.55,3.64-2.88,4ZM160.47,238.72l-1.01,1.01c1.41,1.06,1.39,2.09.66,3.55-.17.34-2.27,1.8-.66,1.83,2.67.06,4.3-5.03,1.01-6.39ZM118.75,281.12c-1.9,1.08.81,2.99-1.49,3.88-.13.05-3.4.07-2.03,1.33,1.04.96,5.84-.67,5.43-3.19l-1.91-2.02ZM171.38,233.68c-.14-1.26-1.31-2.19-2.16-3.03-.55.74.68,1.64.81,2.52.25,1.73-1.19,2.83-2.82,2.86,1.68,2.85,4.39-.31,4.17-2.35ZM247.11,162.68c-.08-2.71-4.77-5.05-6.56-2.02,1.07,1.79,2.79-.37,4.24.85l.64,2.68c1.01.32,1.7-.66,1.67-1.51ZM289.03,112.37c-.11.01-.92,1-1.28,1.17l.57,1.31,3.71-1.63c-.72-.09-2.52-.91-3-.85ZM130.53,272.09c-1.87.33-.53,3.09-1.13,4.17-.74,1.34-3.78,1.01-2.4,3.01,2.69.16,5.92-2.84,5.33-5.48-.15-.66-1.3-1.79-1.8-1.7ZM179.31,223.3l-1,.96c.88.93,1.95,1.7,2.56,2.86.84,1.61-.62,2.92.47,4.2,3.29-2.76,1.47-6.51-2.03-8.02ZM183.35,219.98l-1.34,1.24c1.06.7,1.95.95,2.57,2.18.84,1.69-1.11,2.58.12,3.88,3.08-2.12,1.76-6.1-1.35-7.3ZM303.81,106.83c-1.79-2.64-8.79-1.83-7.25,1.87.22.52,1.42.3,1.87.75.91-3.38,3.87-.11,5.38-2.62ZM166.87,237.05c-1.39.97-.51,2.73-1.31,3.9-.64.92-3.04,1.37-1.89,2.32,3.41.24,5.09-3.54,3.2-6.21ZM253.34,159.32c-1.69-3.27-7.74-4.2-7.07.33,2.12-2.43,4.27-1.58,6.06.68l1.01-1.01ZM121.78,283.48c-1.77.28.45,2.98,2.86,2.45,3.04-.66,3.77-4.09,1.18-5.82-1.74,1.19.45,2.08-1.49,3.52-1.32.98-2.36-.19-2.55-.15ZM253.68,153.14c-1.08-.06-4.59,1.71-3.19,2.63,1.65,1.1,4.44-2.62,6.32.97l1.58-.45c-.95-1.5-2.88-3.06-4.71-3.16ZM300.45,111.54c-2.81-2.32-6.25-1.75-7.73,1.68,2.06,1.37,3.89-2.71,6.39-.43l1.35-1.25ZM175.8,237.38c0,.75-1.8,2.47-.69,3.19,1.56,1.02,3.73-3.54,1.29-5.75-.96-.87-3.31-2.03-4.49-.8,1.49.17,3.9,1.81,3.88,3.36ZM263.09,152.26c.04-1.21-3.23-4.21-4.87-3.92s-4.22,3.42-2.35,4.42c.48-1.65,2.92-3.11,4.39-2,.21.16,2.75,3.58,2.83,1.5ZM297.41,117.94c-1.1-3.39-6.89-4.82-7.94-.84-.34,1.28.64,1.59.71,1.88.08.33-.54,1.19-.32,1.47,1.12,1.45,1.72-2.54,1.82-2.71,1.34-2.13,3.62-.2,4.74,1.2l.99-1ZM122.12,290.54c1.52-1.09-.43-5.1-1.86-4.2-1.25.79.72,3.98,1.86,4.2ZM244.93,169.75c.15-1.88-5.5-3.97-5.71-2.36-.14,1.01,5.53,4.6,5.71,2.36ZM264.78,145.86c-.02-1.57-5.25-.88-4.53,1.52,1.19,1.12,1.89-.6,2.63-.92.27-.12,1.92.57,1.9-.6ZM132.89,276.41c2.75,2.54,6.52-1.39,4.89-4.55l-2.02-.32c.8,2.89.19,4.23-2.86,4.87ZM178.31,235.7c3.78,1.85,2.25-5.86-1.18-5.55-1.17,1.54.64,1.57,1.32,2.34.89,1.02.98,2.29-.13,3.21ZM171.24,236.76c-2.04.47.29,1.99.56,3.15.44,1.88-1.84,2.41-.55,3.53,2.02-.62,3.23-3.93,1.82-5.56-.26-.3-1.66-1.15-1.82-1.12ZM189.41,218.54l-2.69,3.37c1.44,2.4,3.43-1.51,2.69-3.37ZM250.65,168.74c-1.27-2.95-4.56-4.75-7.4-2.7,1.27,2.6,2.89.64,4.23,1.17,1.11.44,1.17,2.54,3.16,1.52ZM132.21,277.76c-2.22.47,1.5,3.15-1.5,4.74-.44.23-4.03.04-1.69,1.35,2.95,1.65,6.24-1.01,5.19-4.26-.18-.56-1.71-1.9-2-1.84ZM168.55,241.42c-1.6,1.49.44,3.11-1.85,4.87,3.4.29,3.81-2.6,1.85-4.87ZM191.1,219.65l-1.01.91,2.4,1.83-.56,3.05c1.89,1.37,2.77-2.71,2.01-4.06s-1.61-1.13-2.83-1.74ZM188.41,229.64c.95,1.18,2.27.06,2.87-.83,1.36-2.01-2.75-5.22-3.71-4.38-.69.6,1.75,1.76,1.98,2.94.16.8-.67,1.69-1.14,2.27ZM256.04,164.03c.75-1.72-2.22-2.88-3.54-2.9-2.24-.03-3.42,1.82-4.88,3.24l1.69.98c1.89-3.06,3.84-3.38,6.73-1.33ZM294.73,121.97c-.11-1.21-7.42-1.44-2.69,1.19l2.69-1.19ZM306.5,108.17c-5.76-1.09-5.69,7.68-1.14,1.8.67-.86-.87-1.12,1.14-1.8ZM127.63,286.84c-.03.5-.2.95-.66,1.22l-3.34.94c.88,3.14,5,1.35,6.83-.14-.65-1.65-.63-3.27-2.29-4.38-1.45.85-.49,1.54-.54,2.35ZM184.7,227.96l-1,1.68c.41.7.73-.43,1.23-.13,3.18,1.93.62,3.8.96,5.01l1.85.49c.63-.38-.21-.65-.11-1.23.09-.52.56-1.03.59-1.61.1-2.02-1.93-3.37-3.52-4.21ZM246.95,173.79c-2.38-2.83-5.78-3.09-8.07,0,1.28,1.92,2.19.01,3.53-.21,1.6-.27,3.25,2.26,4.54.21ZM306.5,115.58c-1.8-3.07-7.83-3.96-8.2.34-.04.44.31,2.57,1.31,1.84.61-.44-.22-2.07,2.01-2.86s3.15,2.11,4.88.68ZM197.15,216.86c-.93.63-.2,1.71-.64,2.52-.54,1.02-2.44,1.64-1.05,2.52,1.88-.84,3.05-2.04,2.89-4.21l-1.2-.83ZM242.91,178.5l-3.55-2.81-.86.04-.97,1.42,4.38,2.35,1-1ZM254.36,160.33c1.7,1.54,3.27-1.34,5.21-.89,1.44.33,1.84,1.88,3.36,1.73-1.03-4.4-6.67-4.8-8.57-.84ZM138.74,277.75c-.52,2.92-2.96,2.32-3.32,2.86l.32,1.37c1.57.9,3.37-.07,4.35-1.34,1.52-1.97.5-6.58-1.33-4.74-.74.74.06,1.41-.02,1.85ZM263.77,154.28c-1.86-1.38-4.78.08-4.2,2.51l3.7-1.34c.26-.16-1.06-1.02.49-1.17ZM184.03,240.07c2.74-2.05,1.3-6.73-2.18-6.55-.21,1.53,1.26,1.2,1.84,2.66.37.93.27,1.9-.44,2.65l.78,1.24ZM174.27,241.76c-2.19,1.79,3.62,3.75,3.7,3.03-.69-1.89-2.17-2.08-3.7-3.03ZM259.06,168.41c-.96-4.33-5.76-4.6-8.71-2.03l1.3,2.03c.73-.75,2.49-2.07,3.54-1.91,1.39.2,2.44,2.47,3.86,1.92ZM299.11,126.34l.87-.82c-.65-2.5-7.19-3.77-7.74-.03-.5,3.4,2.65,1.16,3.66-.35,3,.54,3.95,1.96,2.71,4.73,1.29.16,1.82-1.12,3.02-1.39,1.38-.31,2.99,1.42,4.54.22-.75-.4-1.14-2.03-1.67-2.24-.22-.09-4.01.18-4.38.8l-1.01-.93ZM295.07,121.63c1.41,1.5,3.06-.57,4.56-.5.96.04,1.33,1.1,1.97,1,3.6-.54.85-3.77-2.33-3.37-2.01.25-2.87,1.47-4.2,2.87ZM179.33,238.2c-.45.12-.69.57-1.02.86,2.16,1.8,3.9,2.91,1.19,4.95-1.29.97.59,1.44,2.35-.38,2.26-2.33-.53-5.98-2.52-5.43ZM199.84,217.54c-1.56,1.88.5,1.36,1.55,2.21,1.86,1.52.82,3.53-1.2,4.17.28,2.19,4.92-.54,3.85-3.19-.8-1.98-2.54-2.32-4.2-3.2ZM134.9,283.15c-1.71.89.03,2.05-.61,3.22-.85,1.56-3.11,1.19-3.25,1.33-1.31,1.32,2.79,1.67,3.7,1.33,2.56-.94,2.81-4.82.16-5.88ZM194.97,223.08c-.34,1.98,2.06,1.12,2.91,2.67.44.81-.18,1.89-.23,2.72-.11.51.83.4,1.02.29,3.46-1.97-.33-7.39-3.7-5.68ZM202.88,217.19c2.53,2.63,4.3-2.05,3.18-4.2-2.54-.17-.26,3.78-3.18,4.2ZM243.25,185.57c-.75-2.92-7.97-5.08-8.6-1.86-.39,2,1.62.37,2.71.32,1.53-.07,3.88.82,4.2,2.55l1.69-1.01ZM248.97,169.95c-1.24.12-2.93,1.36-1.86,2.66,2.34-.72,3.85-1.23,5.65.94l1.59-.43c-1.13-1.45-3.45-3.36-5.38-3.17ZM146.04,275.91c-.71-.15-1.15-1.07-1.71-1.52.08,2.78-1.58,2.21-2.68,4.04,2.39,1.18,5.63.21,5.21-2.86-.18-.4-.54.4-.81.34ZM194.46,234.35c4.81-2.05,3.22-7.7-1.84-7.56-.59,2.34,2.16,2.17,2.66,4.29.3,1.4-2.4,1.93-.82,3.27ZM236.35,191.62c-.09-1.61-3.54-4.97-4.7-3.87-1.01.96,2.2,1.93,2.56,2.38.62.78.12,2.47,1.3,3.16.29,0,.86-1.31.84-1.68ZM130.53,289.54c-1.48.78-.43,2.65-.96,3.56s-2.67,1.22-2.07,2.15l2.19-.16-.17-1.17,1.03.98c1.92-1.85,2.31-3.53-.02-5.36ZM214.49,210.8c0-.95-1.18-2.54-2.35-2.18-.8,1.21.34,1.86.33,2.67-.01,1.12-1.83,2.45-.51,3.54.57-.05,2.53-3.31,2.53-4.03ZM252.33,179.18c-1.94-4.09-5.82-4.69-9.08-1.69.8,2.47,3.3.43,4.88.79s1.93,2.18,4.2.9ZM138.61,286.77c.14.04,2.6-.74,2.85-.9,2.36-1.46,3.6-3.97,1.02-5.83l-1.35.24c.38,2.79-.54,4.12-3.36,4.7-.15.71.13,1.59.84,1.78ZM190.62,237.04c-.03.35.37,1.33.63,1.49,3.94-.26,1.99-6.99-1.67-6.69-1.16,1.48.62,1.56,1.21,2.34,1.09,1.44-.1,2.05-.17,2.86ZM296.75,129.38c-.38-1.01-3.87-1.77-4.03-.68l1.76,1.82,2.27-1.15ZM207.92,219.55c1.83,1.79,3.89-1.99,3.07-3.54-.68-1.28-1.83-1.93-3.23-1.67.62,2.08,2.72,3.13.16,5.21ZM218.35,203.74c-1.63.19,1.84,4.26-.33,5.05,3.67,2.21,2.76-5.34.33-5.05ZM261.42,162.25c-1.62.04-2.7.88-3.7,2.12l1.35,1.3,2.36-1.63,1,1.68c1.9-1.57,1.76-3.53-1.01-3.46ZM240.9,192.62c2.95-2.93-2.85-8.23-5.72-5.03,1.61,2.01,5.45.44,4.22,4.27l1.5.76ZM250.31,182.54c-1.86-.9-2.99-2.4-5.21-2.53-2.34-.14-5.54,1.99-2.69,2.87,1.67.51,3.59-1.73,5.7.89l2.21-1.24ZM307.19,116.26c-1.51.46-4.08,4.17-2.2,5.2,2.33.35,1.46-3.17,3.7-2.69v-.99s-1.49-1.52-1.49-1.52ZM187.06,236.38c-1.61,1.41.99,2.42,1.21,3.53.1.53-.6,1.18-.67,1.68-.35,2.62,3.54.89,2.95-2.03-.37-1.85-2.13-2.24-3.5-3.18ZM225.42,204.07c1.71-1.06.65-4.66-1.16-4.54l-1.19.84c2.43.82,1.39,2.01,2.35,3.7ZM230.13,193.31l-1.34,1.34c1.85,1.09,1.13,2.57,2.01,4.04,1.34-1.77,1.26-4.1-.68-5.38ZM253.53,169.91l.32,1.35c1.14-.02,2.21-.53,3.38-.31,1.5.28,1.7,1.69,3.35,1.32.13-2.84-5.69-4.42-7.05-2.36ZM206.24,225.94c.65-.71,1.6-1.34,2.06-2.19,1.15-2.11-2.4-5.44-3.57-4.37-.84.77,1.75,2.03,1.94,2.99.25,1.24-.23,2.2-1.44,2.55l1.01,1.01ZM132.89,293.24c.17,2.23,12.09-1.26,4.7-6.06-1.46,1.52-.09,2.36-.17,2.92-.41,3.05-4.69,1.12-4.53,3.14ZM147.69,277.09c-.94,2.35.93,5.34-2.77,5.65l-.08,1.58c4.9.34,6.4-4.11,2.85-7.23ZM223.74,209.79c3.04-2.21,1.43-7.08-2.53-6.21-1.38,2.2,1.75,1.17,2.62,3.01l-.09,3.2ZM218.87,212.49c.01-1.21-2.52-3.89-3.37-2.53-.65,1.83,1.41,1.83,1.69,3.02.11.49-.59,1.74-.34,2.03.71.85,2.02-2.07,2.03-2.52ZM235.51,199.36c2.01,0,.3-7.47-3.2-6.22-1.45.52,2.08,2.53,2.41,3.02.49.73-.54,3.19.79,3.19ZM304.16,122.17c-1.49.15-4.1,2.47-2.2,3.58,1.28.75,1.71-.67,2.35-.88,1.19-.4,3.03.23,3.89,1.14l.99-1c.27-1.27-3.93-2.96-5.03-2.84ZM230.47,205.08c1.28-.02,1.28-3.43.53-4.49-.95-1.34-5.15-3.03-3.74-.07l2.25,1.05c.85.52-.43,3.52.97,3.5ZM297.09,130.58c-1.55.14-4.41,3.08-2.53,4.01,1.14.56,1.36-1.72,2.69-2.03.89-.21,3.45,2,3.83.52l-.12-1.51c-1.22.21-2.86-1.08-3.87-.99ZM202.54,230.99c5.27-.23,2.69-7.87-1.68-4.38.44.78,1.28.32,1.87.64,1.73.95.9,2.56-.18,3.74ZM254.69,174.36c-1.44,0-4.67,1.78-2.52,2.6,1.18.45,4.69-1.68,5.98,1.32l1.58-.45c-1.53-1.44-2.73-3.47-5.05-3.47ZM214.32,221.9c4.36-3.24,3.68-7.52-2.18-5.88-.37,1.96,1.97.9,2.63,2.33.53,1.09-1.95,2.41-.45,3.55ZM149.9,283.15c-.04,1.03,2.05,2.46-1.02,4.08-2.72,1.43-3.51-3.76-6.07-1.24-1.02,1.01,1.51,1.66.55,3.4-.86,1.57-2.46.86-3.07,2.51,3.84,1.67,5.63-1.17,6.05-4.71,3.11,5.08,9.93-2.38,4.37-5.72-.1.6-.81,1.28-.82,1.68ZM153.41,277.2c-.46-.12-.73-.44-1.01-.78l-2.01,3.37c.48,2.21,4-.84,4.36-2.36-.51-1.07-1.04-.14-1.34-.22ZM199.51,236.04c1.13,1.6,3.35-1.11,3.23-2.16-.26-2.25-3.05-5.13-4.91-2.89l2.87,2.52-1.19,2.53ZM199.34,238.06c-.06-2.25-3.35-3.45-5.21-2.7,1.4,1.16,3.54,1.65,2.74,3.89l-1.73,1.16.83.85c1.68-.14,3.41-1.36,3.37-3.2ZM248.94,189.28c-1.12-3.09-5.11-3.2-7.37-1.36l1,1.69c1.53-1.59,4.07-.91,5.4.67l.97-1ZM224.2,213.16c-.18-3.83-4.85-3.09-4.83-2.36,3.61,1.6,3.23,1.77,2.69,5.38,1.36-.58,2.22-1.46,2.14-3.02ZM210.28,226.62c1.49,1.41,2.65-.42,3.1-1.85,1.29-4.1-4.15-4.23-4.11-3.2,3.01,1.17,4.01,2.79,1.01,5.05ZM241.67,196.34c-.02-3.29-2.91-4.27-5.15-2.02.78,2.09,1.35.65,2.01.81,2.03.49,1.27,3.92,2.03,3.9.74-.6,1.11-1.79,1.11-2.69ZM228.79,210.8c2.8-2.6,1.72-5.81-2.19-5.88-1.11,1.09,1.37,1.17,1.87,2.66.27.81.14,1.34-.45,1.97l.77,1.25ZM252.67,179.62c-1.18.18-3.24,1.92-1.53,3.09.25.17,1.26-.47,2.04-.34.93.15,3.37,2,4.04,1.34.57-.56-.57-1.46-.99-1.83-.32-.28-3.34-2.29-3.55-2.26ZM234.84,205.42c2.48-1.86,1.02-6.24-2.19-5.88-1.28,1.72,1.28,1.72,1.93,3,.44.88-.88,2.1.27,2.88ZM139.62,293.24c-1.6.94.22,2.31-1.34,3.37l1.94.81,1.27-1.49-1.87-2.7ZM255.33,187.59c-1.85-2.59-5.82-4.12-8.37-1.69,2.74,1.93,5.38-.04,7.07,4.37l1.3-2.69ZM208.59,226.43c-.23-.06-2.62.42-2.18,1.37l2.61,1.66-.42,3.55,2.24-2.86c.19-1.13-1.17-3.44-2.24-3.72ZM153.75,285.17c-.13,1.81,6.51-1,4.24-4.89-.46-.79-1.66-1.07-2.23-1.84-1.08,1.48.2,2.03.44,3.19.52,2.56-2.41,3.06-2.45,3.54ZM219.7,221.9c3.3-2.34,1.99-7.65-2.02-4.71l2.46,1.15-.44,3.56ZM245.95,197.68c3.95-2.81-.78-8.25-3.88-4.55l.51,1.17c.97-.92,2.94-.24,3.48.84s-1.52,1.7-.1,2.54ZM305.83,136.44c-2.25-3.6-7.97-2.31-7.23,2.18,1.4.21,1.89-1.23,3.02-1.67,1.3-.5,3.2,1.24,4.2-.51ZM311.22,133.08c.03-.15-1.61-2.34-1.84-2.53-2.06-1.69-5.72-.43-6.75,2.03.95,2.32,2.64.1,3.72-.31,2.32-.88,2.62,1.5,3.35,1.68.54.13,1.45-.48,1.53-.86ZM226.76,216.86c2.94-2.44,2.71-6.67-1.84-6.22-.24,1.64,1.72,1.29,1.96,3.01.15,1.06-.37,1.53-1.13,2.2l1.01,1ZM147.36,289.54c-1.8,1.43.77,3.36-1.82,4.9-.21.13-5.4,1.32-3.06,2.32,3.45,1.47,9.66-4.25,4.88-7.22ZM205.57,232.17c-.5,0-2.01.87-2.02,1.18,2.87.95,5.09,3.07,1.35,4.71.14,1.75,5.99-1.26,2.86-4.56-.49-.52-1.49-1.32-2.2-1.33ZM239.68,203.08c.12.74-1.16,2.33,1.38,2.17,1-3.26-.43-7.39-4.36-5.05-.34,1.78,1.31.5,2.33,1.36.42.36.57.99.66,1.52ZM301.46,142.17c-1.39-3.7-6.07-3.36-5.88.83,1.21.32,1.89-1.24,2.69-1.38.87-.15,2.13,1.99,3.19.55ZM217.01,228.63c4.16-2.74,3-8.68-2.19-5.55-.45,1.75,2.4.06,3.24,2.34.49,1.33-1.6,2.14-1.05,3.22ZM234.51,211.81c3.04-2.2-.48-8.71-3.2-5.2.68.75,2.07.91,2.6,1.99.44.91-1.04,2.36.6,3.21ZM204.89,240.08c-.16-1.02-3.86-3.06-5.04-1.69,1.65,1.15,3.01,2.93,5.04,1.69ZM253.35,194.32c-.84-.55-.84-1.91-1.32-2.49-2.06-2.49-6.38.18-3.9.98,1.23.39,2.8-.46,3.58,1.69l1.63-.18ZM299.11,145.87c-1.01-1.25-2.25-2.01-3.88-1.88l-.98,2.37,4.87-.5ZM163.52,278.11c-4.05,1-1.76.49-2.33,1.88-.29.71-2.67,1.97-1.88,2.65,1.11.95,5.68-2.32,4.21-4.53ZM224.41,221.91c1.41,1.31,2.25.01,2.5-1.52.41-2.57-1.59-4.02-4.02-3.69l-.33,1.35c1.97.54,3.74,2.05,1.85,3.87ZM213.31,227.82c-.93.02-1.8.59-1.51,1.66,3.02-.77,4.27,3.02,1.51,4.21.29,2.29,5.49-2.65,2.21-5.07-.29-.21-1.87-.81-2.21-.8ZM153.75,287.19c-1.44-.02-.22,2.46-.62,3.21-.83,1.57-2.73,1.37-3.15,2-1.2,1.81,1.38,2.28,2.93,1.73,3.48-1.23,2.19-6.93.83-6.95ZM245.43,203.79c.04-.22.77-.47.93-1.19.96-4.2-2.5-6.75-4.79-2.56.8,1.17,1.64-.34,2.56.47,1.91,1.67.38,2.94.64,3.44l.84.8c.69-.41-.23-.69-.18-.96ZM234.31,214.51c-.2-1.34-2.57-4.1-3.99-3.08l-.86,1.4,2.87,1.48.32,3.06c1.12.79,1.7-2.52,1.65-2.85ZM238.21,210.81c5.14-.2,2.45-6.51-1.85-4.87-.08,1.78,1.74.67,2.55,2.65.34.84-.19,1.54-.7,2.23ZM308.87,141.49l.79-1.87c-2.3-1.78-6.56-2.34-7.04,1.37,1.89,2.17,3.85-2.96,6.25.51ZM158.3,284.66c.95,2.64.83,3.86-2.02,4.7l.32,1.37c4.58,1.8,7.19-4.4,3.04-6.76l-1.34.69ZM213.64,236.04c-1.69-4.03-7.44-1.51-1.85.12.7.2,1.18.87,1.85-.12ZM222.4,227.97c1.35,1.35,2.14-.13,2.46-1.52.61-2.67-1.5-4.17-3.98-3.69-1.26,2.07.91,1.36,1.72,2.01,1.13.91.78,2.3-.2,3.19ZM306.85,136.78l1.85.67c.19-.53,3.19-.78,2.35-1.85s-3.68-.04-4.2,1.18ZM149.38,294.93c-1.99.86-1.97,4.21.51,4.2,1.27-1.27.86-3.22-.51-4.2ZM305.5,146.2c1.66-1.11.61-2.63-.84-3.4-1.55-.83-5.33,1.25-3.53,3.06,1.19-2.23,3.48-2.13,4.37.34ZM164.86,280.8l-1.17,1.13c1.95,2.83-1.25,3.01-1.01,5.42,3.53.37,5-4.5,2.18-6.55ZM148.04,299.14c-.45.01-2.64,1.53-2.69,1.84l2.02,1.34.35-.84c1.16.82,1.76-.76,2.66-1.52-.73.03-2-.84-2.35-.83ZM232.99,219.9c-.06-2.47-4.09-2.97-5.04-1.53-1.02,1.55,2.61.31,3.03,2.36.17.8-1.09,2.01.5,2.86.22-1.04,1.53-2.78,1.5-3.69ZM303.48,147.55c-2.22-1.74-5.56-.91-5.88,2.19.14.36,4.45-2.82,4.87-.51l1.01-1.68ZM222.73,229.65c-1.96-1.52-4.51-1.07-5.38,1.35,2.02.86,3.52-.93,5.38-1.35ZM240.23,214.84c.25-2.77-3.14-3.4-5.21-2.19.15,3.14,1.36,1.04,2.52,1.02.64-.01,2.06.81,2.69,1.17ZM246.26,206.77c-1.54-2.09-6.39-2.2-3.68,1l1.01-1.68.17,1.51.96-.34.89,1.51.65-2.01ZM151.4,297.62c-.01.08.68,1.27.86,1.39.91.65,3.86-.36,4.72-1.04,3.07-2.44,1.22-6.91-.7-5.9-1.58.83.99,2.71-2.01,4.57-.69.43-2.78.4-2.86.98ZM169.56,278.77l-2.52,3.19c1.46,2.64,4.06-.6,4.54-2.52l-1,.34-1.02-1.01ZM300.46,150.14c-1.84.03-3.61,1-4.71,2.46l1.34,1.34c1.42-2.48,3.91-1.17,5.38-3.37.02-.1-1.69-.44-2.02-.44ZM229.46,224.27c-1.13-1.6-4.57-1.14-3.52,1.18.52,1.15,2.92-.91,3.52-1.18ZM312.24,144.18c-.08-3.79-4.59-2.22-5.05,1.02,1.95,1.78,2.44-3.04,5.05-1.02ZM159.81,293.93l-.16,1.83c2.6.29,4.75-.54,5.34-3.36.75-3.54-3.47-4.65-2.83-1.68.47,2.17.82,4.22-2.35,3.2ZM166.54,285.85c4.42,1.95.4,3.71-.42,5.19-1.18,2.14,2.29,1.29,3.58-.29,2.59-3.16-.33-9.3-3.16-4.9ZM301.15,155.01c-2.65-.51-7.09-.12-4.85,3.48.74,1.19,1.02-.81,1.62-1.32,1.51-1.29,4.48.43,4.35-1.41-.11-1.57-.82-.68-1.12-.74ZM310.55,147.89c-.03-1.32-3.54-1.4-4.54-1.01-1.63.64-1.87,1.76-2.86,3.03,1.74,1.71,2.96-1,3.85-1.35.74-.29,3.57.68,3.54-.66ZM172.1,280.97c-.13,1.62,2.1,2.38,1.2,4.03-.27.49-2.81,2.84-.87,2.69,3.33-.25,4.73-6.93-.33-6.73ZM308.19,151.59c.12-1.56-9.02.09-5.38,3.36.27-2.92,5.26-1.82,5.38-3.36ZM159.47,297.01c-2.32.65,0,2.12-.82,3.14l-1.53.49,1.56,1.72-.22.97c.64-.5,1.69-.73,2.15-1.44.18-.28-.32-.75-.29-.92.1-.42,1-.43,1.07-1.14.09-.89-1.14-3.04-1.92-2.82ZM178.65,278.44c-1.61,1.15-1.89,2.31-2.52,4.2,2.72,1.01,4.42-2.09,2.52-4.2ZM299.79,158.82c-.77.04-1.8,1.01-2.69,1.17,1.36,2.12,3.38.05,5.15,1.86l1.24-.84c0-.58-2.94-2.23-3.7-2.19ZM166.54,293.34l-1.35,1.25,1.34,1.35c-1.32,2.05-2.22,2.3-4.36,3.03,3.21,3.28,9.85-3.3,4.37-5.62ZM300.12,167.74c-1.35-1.46-3.07-3.23-5.23-2.8l-.82,2.13c2.59-.43,4.16,2.64,6.05.67ZM309.54,157.65c-2.28-3.04-5.95-1.95-8.07.67l1.68.97,2.18-1.76,4.2.12ZM170.92,290.21c0,.28,1.74,1.66.37,3.55-.57.78-2.39.85-1.22,2.34,3.37.28,5.58-4.27,3.05-6.4-.85-.72-2.2-.05-2.2.52ZM174.62,290.55c3.65,3.29,7.28-7.37,1.52-5.56.98,2.77.98,3.61-1.52,5.56ZM312.91,154.95c1.32-3.53-4.97-3.69-5.58-.84.9,2.8,3.51-2.34,5.58.84ZM181.01,280.85c-2.17.52-.04,1.43.39,2.13,1.06,1.7.5,3.02-1.39,3.54,2.63,3.08,6.16-.9,3.54-3.89-.39-.44-2.2-1.86-2.54-1.77ZM185.72,284.16c2.26-1.69,2.57-2.89,1.78-5.49l-2.46-.56c-.62.53.46,1.05.55,1.84.15,1.41-1.03,3.08.13,4.2ZM306.85,164.38c-1.89-2.52-5.48-2.25-7.28.15l.88,2.2c1.93-3.02,3.81-1.41,6.39-2.35ZM312.57,161.35c-1.67-2.55-6.23-3.33-7.93-.51l.86,1.52c1.95-2.94,4.79.73,7.07-1.01ZM298.11,176.49c2.35-2.35-4.37-4.62-4.54-4.2l.33,2.01c1.52.84,3.15.49,4.21,2.2ZM169.9,302.67c2.63-1.74,2.68-5.01-.83-5.21-.54,2.09,1.31,3.38-1.19,5.21l1.69-1.01.33,1.01ZM301.13,170.95c.2,0,4.52,1.62,3.19-.36-1.46-2.18-6.88-1.79-7.53,1.19l.97,1c.67-.75,2.41-1.85,3.37-1.84ZM175.63,292.91c-1.07.13.07,2.17-.27,2.86-.6,1.23-2.98,2.02-3.05,2.5l.97,1.69c1.71-.96,3.82-1.66,4.44-3.78.35-1.17-1.02-3.41-2.08-3.28ZM182.49,292.57c.07-1.17-1.04-4.78-2.65-3.2.97,2.11,1,3.98-1.44,4.89l.45,1.84c2.06.25,3.54-1.63,3.65-3.53ZM189.76,279.45c-1.85,1.27-.2,2,.14,3.19.45,1.61-.88,3.5-2.49,3.87.72,1,.41,1.57,1.85,1.01,3.89-1.5,3.74-5.95.51-8.07ZM193.7,277.58c.42,1.22-.82,3.44-.76,4.06.25,2.47,5.51-2.27,2.74-4.27l-1.98.21ZM303.16,168.75c1.73.31,2.57-1.41,4.56-1.23,1.26.11,2.36,2.36,2.68.05-2.21-3.34-5.84-2.27-7.24,1.18ZM185.38,286.52c-1.77,1.13-.21,1.39-.12,2.51.12,1.39-1.01,2.13-2.24,2.53.6,1.38,1.15,1.59,2.53.7,2.65-1.7,2.12-4.03-.18-5.74ZM292.66,181c-.07.03-2.1-.76-.77.7.51.56,8.01,1.95,4.71-.37-1.84-1.29-2.37-1.03-3.94-.33ZM312.58,163.1c-1.82-.03-1.98-.19-3.37,1.62l1.35,1.29c1.16-1.28,2.81-.82,3.36-2.64-.62-1.08-.86-.26-1.33-.27ZM298.78,178.65c1.2-.34,3.72,2.64,4.53,1.37.45-.71-.75-1.89-1.33-2.32-2.16-1.64-5.05-.43-6.57,1.48l1.34,1.35c.66-.49,1.28-1.66,2.03-1.87ZM299.71,174.98c-.15.26-.3,1.1.24,1.01,1.28-.16,3.15-1.22,4.39-.54.79.43,2.32,3.34,3.01,2.55,1.46-1.68-4.51-8.59-7.64-3.02ZM178.66,297.29l-1.34,1.34c2.6,1.47-.41,2.34,1.01,3.7l2.27-1.68-1.94-3.36ZM197.5,285.17c-.06,1.67,5.22-.81,3.05-4.21-.82-1.29-1.69-1.93-3.22-1.67-.62.59,4.16,4.8.17,5.88ZM182.7,294.59c1.24,1.7.26,3.42-1.85,3.21.23,3.95,4.51,1.16,5.01-1.35.46-2.27-2.97-2.97-3.16-1.86ZM197.03,286.18c-.32-.94-2.43-3.1-3.4-2.52-.89.54.69,2.61.31,4-.21.78-2.03,1.45-2.49,2.22l1.24.84c2.23-1.04,3.67-2.07,4.34-4.55ZM305.51,172.46c.94,1.2,1.98-.3,3.2-.12,1.13.17,1.54,1,2.02,1.92l1.33-.28c.33-4.8-4.72-6.05-6.55-1.52ZM188.75,289.22c-1.34,1.09.82,2.56.06,3.89l-2.41,1.82c4.11,2.64,7.34-3.83,2.35-5.72ZM203.22,274.75l-1.84,5.54c3.51.27,4.45-3.55,1.84-5.54ZM290.35,187.61l-1.33,1.33c.95.17,2.82,3.01,3.53,2.52,1.36-.93-1.3-3.61-2.21-3.85ZM300.12,186.59c.06-3.51-7.8-3.82-8.31.33l1.25,1.34,2.53-2.87c.53-.36,4.5,2.8,4.53,1.2ZM206.27,281.81c1.59,2.42,3.25-.99,3.16-2.53-.11-1.81-1.98-2.99-3.68-3.03-.35,2.37,2.65,3.17.52,5.55ZM304.84,185.24c1.43-.2-.48-3.23-1.5-3.69-1.6-.73-3.58.37-4.55,1.68l2.95-.48,3.11,2.49ZM289.03,194.43c-.51-.11-2.02.88-1.47,1.76.35.56,2.76,1.87,3.15,3.18,1.11.07.13-4.54-1.68-4.94ZM294.74,191.97l2.52-1.89c1.27.56,2.19,1.65,2.03,3.07,2.54.33,1.62-2.72.62-4.04-2.07-2.75-3.68-1.84-6.11-.16l.93,3.03ZM190.39,298.98c-.6-1.79-2.55-3.16-3.99-1.35l2.8,2.19,1.19-.84ZM191.79,292.24c1.15.99,2.69,2.4,1.5,3.9-.34.43-3.97,2.66-1,2.33,1.14-.12,2.68-1.14,3.4-2,2.21-2.64-1.06-6.22-3.9-4.23ZM205.58,287.85c.22-.04,1.33-3.26.87-4.19-1.62-3.32-5.2-2.32-4.41-1.34l2.06,2.69-2.57,2.19.82,1.21c.88.15,1.63-.75,2.31-.94.55-.16.86.4.91.39ZM211.64,273.07l-2.02,1.33c1.06.92,1.73,1.67.57,2.79l.77,1.25c2.16-1.53,2.57-3.49.68-5.38ZM296.76,194.67c-1.74-2.31-4.83-3.34-6.73-.68,1.13,1.89,1.62-.22,3.19.19.75.2,1.55.99,2.3,1.33l1.24-.84ZM196.83,292.58c1.6,2.36,5.84-1.16,4.74-3.2-.68-1.26-2.98-3.22-4.4-1.85,2.48,1.98,2.72,3.69-.34,5.05ZM310.56,180.2c-1.68-2.69-4.26-1.07-5.97.66l.58,1.35c.77-.42,1.73-1.27,2.53-1.49,1.16-.31,1.95,1.08,2.85-.53ZM309.89,177.98c.49-.06,3.74-1.48,2.85-2.32-1.81-.19-3.38.08-4.2,1.85,0,.07,1.17.5,1.34.48ZM292.05,202.74c-1.16-3.19-4.76-4.25-6.38-1.01,1.02.96,3.18-.11,3.84.15.6.23,1.13,2.44,2.55.86ZM284.32,203.74c0,.14.86,1.65,1.17,2.54.55,1.57,1.9.32,1.73-1.02-.28-2.27-2.78-3.22-2.9-1.52ZM301.13,188.94c.54-.57,1.42-1.1,2.21-.86,1.4.43,1.03,2.35,2.66,2.03,1.63-3.72-3.43-6.27-5.26-2.69-.3.59-.16,1.14.39,1.51ZM214.67,280.8c1.55,1.69,3.53-1.52,3.52-2.86-.03-2.37-2.31-2.08-3.87-2.8l-.65,1.29,2.25,2.17-1.24,2.19ZM281.62,211.26c-.22-.05-.76.45-1.14.39-.48-.08-.86-1.6-1.88-.84,1.38.83,1.57,4.28,3.54,3.56,1.16-.42.47-2.87-.51-3.1ZM210.96,279.12c-1.63,2.13,2.96,3.09.35,5.72.2,1.29,3.55.27,2.8-2.87-.46-1.91-1.68-1.92-3.14-2.85ZM218.68,272.43c-.27.03-.58-.36-.76-.18l-.9,1.49c3.5.02,4.25,1.59,5.72,4.37,2.35-3-.6-6.03-4.06-5.68ZM294.4,198.44c1.39.35,1.26,1.37,1.85,2.45l1.34-.33c1.13-1.75-2.23-7.31-5.58-1.33-.42.76-.99.76.04,1.49l2.35-2.28ZM224.58,270.04c0-.37-.24-.77-.43-1.09l-1.74.07c1.28.91-.89,2.84.16,3.53s2.01-1.87,2.01-2.51ZM311.81,184.24c-.46-1.85-6.03-.71-5.45,1.85.33.88,1.47-.33,2.35-.4s1.77.49,2.68.39l.43-1.84ZM199.52,298.61l1.21-.81c-.49-5.69-6.31-3.59-1.21.81ZM208.1,286.52c.05.89-2.23,2.74-1.01,3.53.84.55,3.16-1.82,3.38-2.69.29-1.18-1.48-4.95-3.03-2.69-.31.62.64,1.42.66,1.85ZM286.33,207.93c-.73-.2-4.13,1.43-4.03,2.55.11,1.3,3.05-.56,3.56-.19l1.49,1.87,1.25-2.02c-.1-.39-1.81-2.09-2.26-2.22ZM203.9,288.98l-1.31,1.24c2.23,2.05,1.18,3.67-1.54,4.22-.11,2.86,2.05,1.29,3.37.01,2.19-2.11,2.79-4.24-.52-5.48ZM303.16,197.69c.37-4.17-3.49-4.26-6.06-2.02.8,2.12,1.44.67,2.86.83.92.1,2.3.79,3.2,1.19ZM292.39,209.8c1.73-1.59,1.46-3.77-.48-5.07-3.04-2.03-5.2,3.77-3.21,4.06.2-1.08.79-2.7,2.22-2.04s.48,2.15,1.48,3.05ZM306.18,196.01c2.49-2.07-1.06-6.54-3.56-4.54-1.16.93-.67,2.6.44,2.24l.74-.6,2.54,1.06-.17,1.83ZM232.16,262.64c-1.21-.11-.06,1.37-.18,1.46l-1.17.56,1.29.67-.87,3.7c1.35,2.37,2.85-.71,2.76-2.18-.03-.49-1.61-4.18-1.84-4.2ZM232.44,276.11c.44-2.97-.47-6.36-3.81-6.91-2.17-.36-2.99.2-3.86,2.19.12.86,4.23-1.65,5.72,2.18.62,1.58-1.08,2.83,1.01,3.77,1.94-.6.86-.62.95-1.22ZM277.25,218.22l-1.29,1.34c-.02.5,3.28,3.42,3.79,3.54s1.31-.42,2.05-.27c1.53.32,2.27,2.47,3.36,1.62.7-4.2-3.83-4.2-6.72-3.03.7-1.58.07-2.15-1.18-3.19ZM281.29,215.04l-3.36,2.5c1.1,1.52,3.54-.8,4.56-.12.89.59-.6,3.1,1.64,2.64.83-1.39-.02-2.63,1.53-3.53l-4.38-1.49ZM297.44,206.78c2.45-3.78-1.93-6.98-4.71-3.36l3.22.49,1.49,2.87ZM237.72,259.11c.07,1.95,2.01,2.98,1,5.04,3.02,1.04,2.16-3.68.92-5.32l-1.92.28ZM278.53,225.3c.02-.49.36-1.07.13-1.52-.89-1.8-3.57-2.92-4.77-.84,1.86,0,3.86,3.61,4.88,3.19.32-.23-.25-.42-.24-.83ZM224.23,281.82c-.23-2.12-4.54-5.89-5.52-2.36.06.5,3.14.34,3.21,2.7l-1.69,2.84c2.07.36,4.24-.97,4-3.19ZM225.95,277.44c-.06.69-1.87,2.35-1.33,3.21l2.27.62c1.33-3,1.21-7.63-2.98-7.7-.04,1.19,2.12,2.95,2.03,3.87ZM289.86,216.87c.33-3.18-4.1-5.19-6.55-2.69,1.62,2.05,1.95-1.39,4.24,1.49.95,1.2-1.26,2.57.13,3.55.86-.42,2.07-1.36,2.18-2.35ZM211.03,287.87l1.85,2.54-1.74,3c5.54,1.49,3.94-7.66.65-6.75l-.76,1.21ZM219.54,285.18c-.02-1.38-3.08-3.14-3.94-2.45l-.38,1.34,1.67,1.95-1.54,2.87,1,1c1.16-1.03,3.21-3.07,3.19-4.71ZM302.15,198.24c-2.24-.33-3.56,1.78-4.37,3.5.86,1.57,2.36-1.48,3.36-1.26l2.69,3.27c1.75-1.1.32-1.44.21-2.43-.13-1.22.87-2.68-1.9-3.09ZM210.45,293.59c0-1.41-2.75-2.86-3.35-1.85,0,1.74,1.02,2.87,2.52,3.53.28-.05.83-1.3.83-1.68ZM242.93,255.91c-1.12,1.36-2.09,2.07-1.35,4.03,1.79-.73,3.15-2.54,1.35-4.03ZM238.22,272.73c1.89.19,2.54-6.97-1.18-8.25-.37-.12-2.24.23-2.35.35-.83.91,2.64,2.56,3.23,3.69.66,1.26-1.04,3.07.29,4.2ZM246.63,260.28c2.65-1.76,3-8.14-1.34-6.06,1.91,1.38,2,3.05.56,4.82l.79,1.24ZM266.48,241.77c2.41-1.65.83-5.4-1.85-5.55l.33.96-1.17.55,2.69,4.04ZM271.52,230.14l-2.34,1.53c.77,1.58,1.78.2,2.54.59.7.35,1.13,1.81,2.17,2.1l.8-1.93-3.17-2.3ZM294.99,212.5c-1.76-2.84-4.09-2.1-6.29-.34l1.35,1.24,2.54-.69.82,2.14,1.59-2.35ZM254.03,248.26l-2.02,1.25c1.28,1.46,2.65,2.7,1.01,4.38l1.68,1c.99-1.58,1.81-6.05-.68-6.64ZM262.59,247.49c.12-1.36-1.54-5.15-3.34-4.53-1.07,1.69.68,2.78,1.22,4.02.28.63-.79,1.68.97,2.53.59-.53,1.08-1.2,1.15-2.02ZM247.79,264.32c0-2.83-4.29-5.86-6.03-3.21-.65.99,2.22,1.57,3.01,2.68.87,1.22-.33,2.93,1.19,3.89.55,0,1.83-2.66,1.83-3.36ZM281.62,230.68c-1.41-2.72-5.88-5.63-7.4-1.53-.37,1.01-.21,1.52.67,2.19,2.3-3.12,5.41-1.08,4.38,2.35-1.54-1.07-3.37-.6-4.28,1.02l.91,1.68,1.34-1.29,2.02,1.96c-.6.75-1.98,1.18-.68,2.01,1.11-.61,1.89-.89,2.37-2.17.81-2.2-3.14-4.1.66-6.22ZM300.3,211.15c-.02-1.1-1.99-3.17-3.03-3.53-1.94-.68-4.48,2.16-3.03,2.36h3.07s1.3,2.68,1.3,2.68l1.25-.33c.14-.37.45-.8.44-1.18ZM235.65,278.78c.4.85,1.1,1.36,2.05,1.18,1.11-2,.58-6.9-1.38-8.11-.87-.54-2.32.04-3.16-.79-.43,3.22,4.72,3.46,2.49,7.73ZM252.44,260.61c2.78,3.08,3.03-2.94,1.96-4.56s-3.1-1.83-4.91-1.32c-.37,1.97,1.49,1.38,2.38,2.03,1.35.99,1.23,2.48.56,3.84ZM272.2,234.91c-.9-.03-4.38,1.42-4.37,2.15l1,1.01,3.28-1.48,1.77,3.16c1.53-1.96,1.13-4.76-1.69-4.84ZM291.2,222.26c-.32-3.24-6.77-3.25-6.48-1.34.35,2.32,2.8-.24,4.15.95.41.36.41,3.15,1.91,1.57.16-.17.45-.93.43-1.18ZM303.83,205.1c-2.22-1.75-3.9-.51-5.04,1.69l1,1,4.04-2.69ZM230.15,285.51c2.52-2.24,2.63-8.01-1.51-8.57-.52,1.72,1.34,2.69,1.65,3.95.27,1.12-2.21,3.44-.14,4.62ZM224.06,287.53c-.03-.2-3.28-.57-3.68-1.68l-.94,1.68c.01.54,4.54,3.61,5.32,2.02-1.9-1.04-.68-1.89-.7-2.02ZM259.89,252.89c.09.55-1.05,2.92,1.44,1.91,2.01-2.49.92-4.61-2.08-5.35-1.44-.36-3.5-.46-2.35,1.59,1.5-.68,2.71.2,2.99,1.85ZM282.63,225.15c-.69-.07-3.01.88-3.02,1.48,1.41,1.67,4.99-.06,3.86,3.21l1.35.31c1.41-.62.34-4.73-2.19-5ZM241.59,266.23c-.26,0-1.3.31-1.32.43.5,2.88,1.49,1.34,2.47,1.98,1.28.83,1.46,3.63-.15,4.44l1,.97c4.18-1.61,2.17-7.94-2.01-7.81ZM267.83,247.83c2.88-4.23-1.85-7.75-5.05-3.7l3.22.51,1.82,3.19ZM225.44,289.55c.37-1.4,1.73-.45,2.51-1.17,1.7-1.55.49-6.99-2.68-6.06-.51,1.26,1.03,2.75,1.03,3.53,0,1.08-2.35,2.51-.86,3.7ZM295.09,221.25c1.46-2.49.1-6.4-3.22-5.43-.74.42-1.91,2.47-1.65,3.25.35,1.06,2.52-1.04,3.7-.25l1.18,2.43ZM250.34,267.35c-.1,1.66,4.79-.51,2.89-4.21-1.35-2.62-2.96-2.02-5.42-2.02.03,1.73,1.75,1.28,2.72,1.96,1.49,1.05,1.3,3.25-.19,4.26ZM272.54,246.48c4.98-3.38-.73-10.43-4.71-4.71,1.78,1.25,3.94-1.73,4.89,1.85.28,1.07-1.52,2.01-.18,2.85ZM294.42,215.2c.87.76,4.97,1.68,4.56-.51-.45-2.44-3.71-1.22-4.56.51ZM260.77,262.97c1.4-4.31-.06-9.66-5.55-7.26.02,2,2.52,1.22,3.57,2.71.64.91.64,3.62,1.98,4.55ZM288.69,223.61l-2.76,1.51c-.76,2.68,1.14,1.18,2.62,1.97.9.49,2.21,3.22,3,2.39,1.22-1.28-1.74-5-2.86-5.88ZM265.14,247.33c-.95,0-2.18.94-1.84,2.01,3.61.22,3.83,3.2,1.18,5.23,1.57,1.03,2.43.05,3.23-1.52.96-1.9-.32-5.72-2.56-5.72ZM238.56,273.74c.49,1.73,2.3,1.97,3.18,3.17.47.64.06,4.96,1.35,3.72,1.63-1.57-.34-10.05-4.53-6.9ZM237.89,282.49c-1.25-1.19-2.88-3.63-4.86-2.54-1.09,1.73,3.46,4.75,4.86,2.54ZM282.98,238.08c2.81,1.3,4.02-3.49,2.84-5.23-2.96-4.35-6.05.9-4.2,1.18,1.19-1.07,2.22-.15,2.92,1.02l-1.57,3.03ZM279.95,245.81c2.04-4.53-.23-8.27-5.2-5.59l.47,1.48c2.11-1.39,4.85.86,2.72,2.77l2.01,1.34ZM248.65,267.85c-.94,0-2.18.95-1.84,2.01,2.07.21,3.6,2.29,1.73,3.98l.79,1.24c3.05-1.34,2.62-7.22-.67-7.24ZM296.09,222.26c-2.03-.66-3.8.99-5.04,2.36l1.84,1.2,3.2-3.56ZM258.75,268.36c1.7-1.87,2.76-3.27.87-5.56-1.16-1.41-4.35-1.94-5.41-.65-1.39,1.67,2.48,1,2.68,1.1.73.36,1.35,1.28,1.98,1.84.36.59-1.5,2.43-.12,3.26ZM270.53,253.22c-.08,1.63,4.36-.52,3.84-3.87-.46-2.97-4.25-2.94-5.86-.85-.04.85,4.75-.03,3.22,3.2-.28.59-.75,1.06-1.2,1.51ZM291.38,231.01c-1.93-1.58-3.99-1.69-5.71.34l4.06,1.27,1.66-1.6ZM262.79,255l-1.34,1.25c3.04.73,3.15,2.95,2.19,5.54l1.68.38c2.57-2.9.91-6.17-2.53-7.17ZM247.65,278.12l1.09-1.18-.23-1.33c-.53-.54-4.41-1.72-4.56-.52-.17,1.37,3.2,1.78,3.7,3.03ZM281.97,238.6c-.43,0-1.69.5-1.68.82,1.3,1.97,3.81.27,4.37,3.03l1.35-.67c-1.03-1.34-2.08-3.2-4.03-3.18ZM257.06,269.37c-1.53-2.16-3.33-1.77-5.38-.68l.51,1.19,2.04-.37,1.15,1.54,1.68-1.68ZM278.9,246.82c-1.1-1.68-3.48-1.68-4.67,0l3.54,1.56,1.13-1.56ZM272.15,255.58c-.05-1.76-5.38-1.71-5.99.66,1.63,1.35,3.47.28,5.55,1.17-.82-.76.45-1.61.44-1.84Z"/>
  <path d="M166.51,150.7c1.93,1.24,4.64,1.04,6.57,2.05,2.87,1.5-2,2.09-2.39,2.35-1.27.85.1,1.33-.6,2.02l-1.73.56c-1.36-.93-2.04-1.64-1.36-3.22l-4.53-1.91,4.03-1.86Z"/>
  <path d="M194.11,155.27c-1.9,1.57-3.42-1.14-4.88-1.89-1.17-.61-3.67.41-3.36-1.97,2.9.84,6.22,1.36,8.24,3.87Z"/>
  <path d="M179.47,140.29c.81-1.16,6.56,1.58,5.37,2.69-.57.53-3.66-1.06-4.37-1.47-.35-.2-1.67-.26-1-1.22Z"/>
  <path d="M191.08,149.55l-4.29-.3-1.26-1.54c2.01-.84,3.96.69,5.54,1.84Z"/>
</svg>