<svg width="179" height="38" viewBox="0 0 179 38" fill="none" xmlns="http://www.w3.org/2000/svg">
<path d="M173.679 5.49662L177.672 33.6958L151.964 37.1801C151.718 37.0213 151.932 35.8533 151.99 35.5311C152.506 32.6713 153.667 29.3871 154.365 26.509C155.456 22.0094 156.313 16.9189 157.558 12.6514C158.152 10.6161 158.441 8.33196 159.064 6.43563C159.233 5.92108 159.277 5.49509 159.877 5.41875C162.452 5.08895 166.318 5.38669 169.052 5.36378C169.723 5.35768 170.366 5.33477 171.036 5.33477C171.966 5.33477 172.766 5.10575 173.68 5.49509L173.679 5.49662ZM167.026 16.8716C167.278 17.1006 167.334 17.7083 167.765 17.7404C167.954 17.7541 169.874 17.4625 170.022 17.3815C170.694 17.012 169.993 16.0791 169.633 15.6837C167.023 12.827 159.39 14.4851 161.263 19.4168C162.252 22.0201 165.293 21.1895 167.198 22.0048C168.207 22.4369 168.175 23.6767 167.16 24.1027C165.67 24.7272 164.428 24.292 163.518 22.9927L160.865 23.4385C161.317 27.7579 170.468 27.5091 170.944 23.4385C171.187 21.3666 170.302 19.8932 168.282 19.3649C167.212 19.0855 164.735 19.1786 164.15 18.3297C163.113 16.8258 165.967 15.9066 167.026 16.8701V16.8716Z" fill="#E0D9D2"/>
<path d="M104.701 33.3386L88.0604 31.7995C88.0055 30.8712 88.1138 29.9001 88.036 28.9764C87.52 22.8476 86.4469 16.67 86.3614 10.5047C86.3553 10.1046 86.5293 9.74276 86.5156 9.29693C86.4652 7.6113 85.1676 6.2631 85.7325 4.65839L110.534 5.81115L104.698 33.337L104.701 33.3386ZM95.6884 12.0498L93.0338 11.7857L92.7102 12.2132L91.7256 23.382L99.6559 24.234C99.8711 24.1806 100.152 22.2216 99.894 22.0109C99.3643 21.5804 95.9983 21.6567 95.1053 21.4903L94.8672 21.2765L95.5495 13.0606L95.835 12.8926L95.6884 12.0483V12.0498Z" fill="#E0D9D2"/>
<path d="M156.296 9.41907L146.891 36.2044L132.743 33.8806C132.53 33.6836 132.433 33.4561 132.382 33.1737C132.22 32.2896 132.458 30.5276 132.458 29.523C132.458 26.6449 132.517 23.7179 132.588 20.8185C132.612 19.7772 132.125 18.4855 132.856 17.6075C132.256 17.4319 132.669 16.4685 132.652 15.9387C132.595 14.0607 132.374 11.607 132.478 9.80842C132.507 9.31067 132.801 9.44503 132.801 9.358C132.801 9.14882 132.56 8.96713 132.551 8.76101C132.537 8.44953 132.65 6.32417 132.775 6.23561L156.298 9.41602L156.296 9.41907ZM139.932 22.3819C142.029 22.501 144.409 22.9118 145.853 21.0154C147.027 19.4748 146.934 16.9006 145.43 15.6058C144.027 14.3981 140.121 14.0652 138.224 13.9843C138.045 13.9767 137.904 13.9706 137.787 14.1309L136.59 25.3486C136.666 25.6051 139.266 25.9792 139.494 25.8128L139.932 22.3804V22.3819Z" fill="#E0D9D2"/>
<path d="M140.049 20.0718L140.483 16.5571C141.707 16.7464 143.826 16.6471 143.834 18.4412C143.841 20.5299 141.501 20.3085 140.049 20.0718Z" fill="#E0D9D2"/>
<path d="M129.614 12.0376L130.194 37.0793L106.461 36.1724C106.089 35.4502 106.579 35.3845 106.748 34.899C107.574 32.5186 108.359 30.1078 109.177 27.7427C110.929 22.6721 112.738 17.3617 114.524 12.1002C114.623 11.8071 115.057 12.0178 114.872 11.3887L129.614 12.0391V12.0376ZM121.729 19.1237L118.844 18.858L117.246 30.2971L119.977 30.575C119.956 30.2146 120.224 29.8787 120.273 29.5886C120.618 27.5702 120.82 25.8922 121.12 23.8996C121.358 22.3163 121.598 20.7208 121.731 19.1237H121.729Z" fill="#E0D9D2"/>
<path d="M77.0268 34.6043L50.7493 30.9597L52.2773 25.0921C52.3216 24.3913 52.0758 23.463 53.0314 23.3775C52.6589 23.095 52.7872 22.6079 53.0665 22.2949C53.1108 22.2461 54.0404 22.2033 53.1398 21.988L53.1169 21.7712C54.1534 21.0231 54.2129 19.4428 54.6236 18.3144C56.1104 14.224 57.44 10.0145 58.8291 5.89971C59.1177 5.04315 59.4214 4.17133 59.7756 3.39417L74.2592 6.43868L77.0253 34.6028L77.0268 34.6043ZM68.3287 18.3099L71.0734 18.1954C71.2153 18.0732 71.2444 18.0595 71.2306 17.8732C71.0749 15.7463 68.3546 14.0607 66.4251 13.8408C57.4476 12.8209 56.5043 27.2449 64.8726 27.1716C66.1656 27.161 66.88 26.6739 67.8784 25.9685L68.3119 27.2572L70.446 27.3747L71.1925 20.7055C71.0963 20.2383 69.4629 20.1909 68.9927 20.139C68.5226 20.0871 65.784 19.8459 65.5916 19.9757L65.352 22.1025L67.9791 22.5468C67.7975 25.3455 63.9735 25.6692 62.9263 23.2263C62.4424 22.0949 62.3936 20.0673 62.7309 18.884C63.2454 17.0747 64.8757 15.6455 66.7961 16.4593C67.7624 16.8685 67.7685 17.5709 68.3272 18.3114L68.3287 18.3099Z" fill="#E0D9D2"/>
<path d="M30.8403 5.60808C31.8203 6.04781 35.0367 5.85849 36.4701 5.96078C41.9641 6.35471 47.4779 7.19447 52.9733 7.66168C53.4023 7.69833 53.8419 7.63267 54.2694 7.65405C53.5183 11.1734 52.3597 14.5951 51.3644 18.0503C51.1186 18.9023 50.8652 19.7588 50.6164 20.6154C50.3951 21.3758 50.1646 23.1866 49.8241 23.7744C49.7219 23.9515 49.5188 23.866 49.3585 23.8783L49.6761 24.1226L47.2977 32.5293C46.6612 32.9859 37.6135 31.6621 36.0412 31.4819C33.7224 31.2163 31.66 31.1002 29.3397 30.6712C29.1352 30.633 28.7658 30.9109 28.5627 30.607C28.6436 29.6238 28.6604 28.616 28.6314 27.6205C28.5597 25.118 28.4437 22.5759 28.407 20.1528C28.4009 19.7466 28.3276 18.1465 28.3872 17.8793C28.4269 17.7037 28.7795 17.9007 28.7001 17.5495L28.3857 17.3739C28.5261 14.5248 28.3093 11.6483 28.4711 8.84499L28.4437 5.48136C29.2359 5.36379 30.0984 5.27676 30.8403 5.60808ZM32.173 20.5497C33.1133 23.7866 35.6992 25.2738 39.0667 25.031C46.0139 24.5302 46.8047 13.3247 39.9582 11.804C35.5389 10.8222 32.0554 13.7446 31.8417 18.1862C31.8325 18.3679 31.9028 20.2902 31.9333 20.3986C31.9638 20.507 32.1607 20.507 32.173 20.5497Z" fill="#E0D9D2"/>
<path d="M35.8365 20.8169C35.8258 20.791 35.6426 20.7772 35.606 20.6627C35.0137 18.8 35.3404 14.6088 37.7645 14.2073C41.6556 13.5614 42.054 19.2015 40.3962 21.4949C39.3841 22.8965 36.7753 22.7973 35.9098 21.2857C35.8121 21.1162 35.8869 20.9391 35.8365 20.8169Z" fill="#E0D9D2"/>
<path d="M21.2202 4.05681C21.2431 4.06444 21.4675 4.36065 21.5514 4.41409L23.9664 18.0335L24.4213 17.8778C24.1557 19.113 24.4259 20.3543 24.6396 21.5819C25.0228 23.7912 25.6608 26.1105 26.0028 28.3626C26.0287 28.5336 26.0822 28.7138 25.9707 28.868L16.8314 30.3124L16.5811 30.0009L16.5002 30.4696L0.725098 32.7187L4.64826 6.4341L21.2202 4.05834V4.05681ZM15.2271 13.2179L13.1617 12.7766L7.96845 12.6606C7.83411 13.2408 8.3516 13.9782 7.60208 14.2683L7.92418 14.5599L7.86464 25.4662C7.99745 25.6723 11.5191 25.6295 12.0397 25.6082C12.5221 25.5883 13.0915 25.1379 13.2624 25.7532C14.302 25.2661 15.5873 25.2051 16.6742 24.5669C19.9074 22.672 20.1425 16.7021 17.3749 14.3431C16.9139 13.9507 15.5888 13.3675 15.4163 13.1873C15.3736 13.143 15.5522 12.8606 15.2988 12.7583L15.2255 13.2179H15.2271Z" fill="#E0D9D2"/>
<path d="M11.0291 23.0202L11.2596 15.3173C14.9843 14.7157 16.6741 17.4075 15.7949 20.8169C15.2392 22.9713 12.9067 23.3194 11.0291 23.0202Z" fill="#E0D9D2"/>
</svg>
