<?xml version="1.0" encoding="UTF-8"?>
<svg id="Layer_1" data-name="Layer 1" xmlns="http://www.w3.org/2000/svg" viewBox="0 0 1172.6 248.88">
  <g>
    <path d="M1137.74,36l26.16,184.69-168.41,22.82c-1.61-1.04-.21-8.69.17-10.8,3.38-18.73,10.99-40.24,15.56-59.09,7.15-29.47,12.76-62.81,20.92-90.76,3.89-13.33,5.78-28.29,9.86-40.71,1.11-3.37,1.4-6.16,5.33-6.66,16.87-2.16,42.19-.21,60.1-.36,4.4-.04,8.61-.19,13-.19,6.09,0,11.33-1.5,17.32,1.05ZM1094.16,110.5c1.65,1.5,2.02,5.48,4.84,5.69,1.24.09,13.82-1.82,14.79-2.35,4.4-2.42-.19-8.53-2.55-11.12-17.1-18.71-67.1-7.85-54.83,24.45,6.48,17.05,26.4,11.61,38.88,16.95,6.61,2.83,6.4,10.95-.25,13.74-9.76,4.09-17.9,1.24-23.86-7.27l-17.38,2.92c2.96,28.29,62.91,26.66,66.03,0,1.59-13.57-4.21-23.22-17.44-26.68-7.01-1.83-23.24-1.22-27.07-6.78-6.79-9.85,11.9-15.87,18.84-9.56Z"/>
    <path d="M685.88,218.35l-109.01-10.08c-.36-6.08.35-12.44-.16-18.49-3.38-40.14-10.41-80.6-10.97-120.98-.04-2.62,1.1-4.99,1.01-7.91-.33-11.04-8.83-19.87-5.13-30.38l162.47,7.55-38.23,180.28ZM626.84,78.92l-17.39-1.73-2.12,2.8-6.45,73.15,51.95,5.58c1.41-.35,3.25-13.18,1.56-14.56-3.47-2.82-25.52-2.32-31.37-3.41l-1.56-1.4,4.47-53.81,1.87-1.1-.96-5.53Z"/>
    <g>
      <path d="M1023.87,61.69l-61.61,175.43-92.68-15.22c-1.4-1.29-2.03-2.78-2.37-4.63-1.06-5.79.5-17.33.5-23.91,0-18.85.39-38.02.85-57.01.16-6.82-3.03-15.28,1.76-21.03-3.93-1.15-1.23-7.46-1.34-10.93-.37-12.3-1.82-28.37-1.14-40.15.19-3.26,2.12-2.38,2.12-2.95,0-1.37-1.58-2.56-1.64-3.91-.09-2.04.65-15.96,1.47-16.54l154.09,20.83ZM916.67,146.59c13.74.78,29.33,3.47,38.79-8.95,7.69-10.09,7.08-26.95-2.77-35.43-9.19-7.91-34.78-10.09-47.21-10.62-1.17-.05-2.09-.09-2.86.96l-7.84,73.47c.5,1.68,17.53,4.13,19.02,3.04l2.87-22.48Z"/>
      <path d="M917.44,131.46l2.84-23.02c8.02,1.24,21.9.59,21.95,12.34.05,13.68-15.28,12.23-24.79,10.68Z"/>
    </g>
    <path d="M849.08,78.84l3.8,164.01-155.47-5.94c-2.44-4.73.77-5.16,1.88-8.34,5.41-15.59,10.55-31.38,15.91-46.87,11.48-33.21,23.33-67.99,35.03-102.45.65-1.92,3.49-.54,2.28-4.66l96.57,4.26ZM797.43,125.25l-18.9-1.74-10.47,74.92,17.89,1.82c-.14-2.36,1.62-4.56,1.94-6.46,2.26-13.22,3.58-24.21,5.55-37.26,1.56-10.37,3.13-20.82,4-31.28Z"/>
  </g>
  <g>
    <path d="M504.59,226.64l-172.14-23.87,10.01-38.43c.29-4.59-1.32-10.67,4.94-11.23-2.44-1.85-1.6-5.04.23-7.09.29-.32,6.38-.6.48-2.01l-.15-1.42c6.79-4.9,7.18-15.25,9.87-22.64,9.74-26.79,18.45-54.36,27.55-81.31,1.89-5.61,3.88-11.32,6.2-16.41l94.88,19.94,18.12,184.46ZM447.61,119.92l17.98-.75c.93-.8,1.12-.89,1.03-2.11-1.02-13.93-18.84-24.97-31.48-26.41-58.81-6.68-64.99,87.79-10.17,87.31,8.47-.07,13.15-3.26,19.69-7.88l2.84,8.44,13.98.77,4.89-43.68c-.63-3.06-11.33-3.37-14.41-3.71s-21.02-1.92-22.28-1.07l-1.57,13.93,17.21,2.91c-1.19,18.33-26.24,20.45-33.1,4.45-3.17-7.41-3.49-20.69-1.28-28.44,3.37-11.85,14.05-21.21,26.63-15.88,6.33,2.68,6.37,7.28,10.03,12.13Z"/>
    <g>
      <path d="M202.03,36.73c6.42,2.88,27.49,1.64,36.88,2.31,35.99,2.58,72.11,8.08,108.11,11.14,2.81.24,5.69-.19,8.49-.05-4.92,23.05-12.51,45.46-19.03,68.09-1.61,5.58-3.27,11.19-4.9,16.8-1.45,4.98-2.96,16.84-5.19,20.69-.67,1.16-2,.6-3.05.68l2.08,1.6-15.58,55.06c-4.17,2.99-63.44-5.68-73.74-6.86-15.19-1.74-28.7-2.5-43.9-5.31-1.34-.25-3.76,1.57-5.09-.42.53-6.44.64-13.04.45-19.56-.47-16.39-1.23-33.04-1.47-48.91-.04-2.66-.52-13.14-.13-14.89.26-1.15,2.57.14,2.05-2.16l-2.06-1.15c.92-18.66-.5-37.5.56-55.86l-.18-22.03c5.19-.77,10.84-1.34,15.7.83ZM210.76,134.59c6.16,21.2,23.1,30.94,45.16,29.35,45.51-3.28,50.69-76.67,5.84-86.63-28.95-6.43-51.77,12.71-53.17,41.8-.06,1.19.4,13.78.6,14.49s1.49.71,1.57.99Z"/>
      <path d="M234.76,136.34c-.07-.17-1.27-.26-1.51-1.01-3.88-12.2-1.74-39.65,14.14-42.28,25.49-4.23,28.1,32.71,17.24,47.73-6.63,9.18-23.72,8.53-29.39-1.37-.64-1.11-.15-2.27-.48-3.07Z"/>
    </g>
    <g>
      <path d="M139.01,26.57c.15.05,1.62,1.99,2.17,2.34l15.82,89.2,2.98-1.02c-1.74,8.09.03,16.22,1.43,24.26,2.51,14.47,6.69,29.66,8.93,44.41.17,1.12.52,2.3-.21,3.31l-59.87,9.46-1.64-2.04-.53,3.07-103.34,14.73L30.45,42.14l108.56-15.56ZM99.75,86.57l-13.53-2.89-34.02-.76c-.88,3.8,2.51,8.63-2.4,10.53l2.11,1.91-.39,71.43c.87,1.35,23.94,1.07,27.35.93,3.16-.13,6.89-3.08,8.01.95,6.81-3.19,15.23-3.59,22.35-7.77,21.18-12.41,22.72-51.51,4.59-66.96-3.02-2.57-11.7-6.39-12.83-7.57-.28-.29.89-2.14-.77-2.81l-.48,3.01Z"/>
      <path d="M72.25,150.77l1.51-50.45c24.4-3.94,35.47,13.69,29.71,36.02-3.64,14.11-18.92,16.39-31.22,14.43Z"/>
    </g>
  </g>
</svg>